<svg xmlns="http://www.w3.org/2000/svg" viewBox="0 0 128.67 97.98"><defs><style>.cls-1{fill:#00636e;}</style></defs><g id="Ebene_2" data-name="Ebene 2"><g id="Ebene_1-2" data-name="Ebene 1"><g id="mail"><g id="Gruppe_248" data-name="Gruppe 248"><g id="Gruppe_247" data-name="Gruppe 247"><path id="Pfad_201" data-name="Pfad 201" class="cls-1" d="M117.36,0H11.28A11.17,11.17,0,0,0,6.43,1.13L64.06,58.75,77,46.34h0l45.21-45.2A11.19,11.19,0,0,0,117.36,0Z"/></g></g><g id="Gruppe_250" data-name="Gruppe 250"><g id="Gruppe_249" data-name="Gruppe 249"><path id="Pfad_202" data-name="Pfad 202" class="cls-1" d="M127.54,6.47,85,49l42.54,42.54a11.27,11.27,0,0,0,1.13-4.84V11.31A11.27,11.27,0,0,0,127.54,6.47Z"/></g></g><g id="Gruppe_252" data-name="Gruppe 252"><g id="Gruppe_251" data-name="Gruppe 251"><path id="Pfad_203" data-name="Pfad 203" class="cls-1" d="M1.13,6.47A11.14,11.14,0,0,0,0,11.28V86.67a11.17,11.17,0,0,0,1.13,4.85L43.67,49Z"/></g></g><g id="Gruppe_254" data-name="Gruppe 254"><g id="Gruppe_253" data-name="Gruppe 253"><path id="Pfad_204" data-name="Pfad 204" class="cls-1" d="M79.66,54.34,66.75,66.72a3.77,3.77,0,0,1-5.33,0h0L49,54.31,6.47,96.85A11.13,11.13,0,0,0,11.31,98H117.36a11.13,11.13,0,0,0,4.84-1.13Z"/></g></g></g></g></g></svg>