<svg xmlns="http://www.w3.org/2000/svg" viewBox="0 0 81.89 107.5"><defs><style>.cls-1{fill:#00636e;}</style></defs><g id="Ebene_2" data-name="Ebene 2"><g id="Ebene_1-2" data-name="Ebene 1"><g id="lock"><g id="Gruppe_242" data-name="Gruppe 242"><g id="Gruppe_241" data-name="Gruppe 241"><path id="Pfad_198" data-name="Pfad 198" class="cls-1" d="M41,63.42a3.15,3.15,0,1,0,3.15,3.15A3.15,3.15,0,0,0,41,63.42Z"/></g></g><g id="Gruppe_244" data-name="Gruppe 244"><g id="Gruppe_243" data-name="Gruppe 243"><path id="Pfad_199" data-name="Pfad 199" class="cls-1" d="M72.46,44.53h-63A9.55,9.55,0,0,0,0,54v12.6a40.89,40.89,0,1,0,81.78,0v0C81.79,56.36,83.57,44.53,72.46,44.53ZM44.11,75.45v10a3.15,3.15,0,0,1-6.3,0v-10a9.47,9.47,0,1,1,6.3,0Z"/></g></g><g id="Gruppe_246" data-name="Gruppe 246"><g id="Gruppe_245" data-name="Gruppe 245"><path id="Pfad_200" data-name="Pfad 200" class="cls-1" d="M40.93,0A34.66,34.66,0,0,0,6.32,34.65v3.16H25.18V34.65A15.75,15.75,0,0,1,56.68,34v3.81h18.9V34.65A34.68,34.68,0,0,0,40.93,0Z"/></g></g></g></g></g></svg>