<svg xmlns="http://www.w3.org/2000/svg" width="26.004" height="26.004" viewBox="0 0 26.004 26.004">
  <g id="fix" transform="translate(-0.001 0)">
    <g id="Gruppe_284" data-name="Gruppe 284" transform="translate(0.001 0)">
      <g id="Gruppe_283" data-name="Gruppe 283">
        <path id="Pfad_203" data-name="Pfad 203" d="M7.8,4.568l.539-.539a.762.762,0,0,0-.147-1.192L4.111.389A2.714,2.714,0,0,0,.388,4.112l2.448,4.08a.762.762,0,0,0,1.192.147L4.568,7.8,8.69,11.916l3.228-3.229Z" transform="translate(-0.001 -0.002)" fill="#cce9ed"/>
      </g>
    </g>
    <g id="Gruppe_286" data-name="Gruppe 286" transform="translate(0.001 0)">
      <g id="Gruppe_285" data-name="Gruppe 285" transform="translate(0 0)">
        <path id="Pfad_204" data-name="Pfad 204" d="M25.486,3.034a.762.762,0,0,0-1.226-.211L22.289,4.794a.778.778,0,0,1-1.077,0,.763.763,0,0,1,0-1.077l1.971-1.971A.762.762,0,0,0,22.972.52a5.335,5.335,0,0,0-7.324,6.6L7.125,15.648a5.335,5.335,0,0,0-6.6,7.324.762.762,0,0,0,1.226.211l1.971-1.971a.762.762,0,0,1,1.077,1.077L2.824,24.259a.762.762,0,0,0,.211,1.226,5.335,5.335,0,0,0,7.323-6.6l8.524-8.523a5.335,5.335,0,0,0,6.605-7.324Z" transform="translate(-0.001 0)" fill="#cce9ed"/>
      </g>
    </g>
    <g id="Gruppe_288" data-name="Gruppe 288" transform="translate(13.536 13.604)">
      <g id="Gruppe_287" data-name="Gruppe 287">
        <path id="Pfad_205" data-name="Pfad 205" d="M277.845,273.812a62.343,62.343,0,0,0-7.036-5.958l-4.309,4.309a64.586,64.586,0,0,0,5.842,6.921,4.045,4.045,0,0,0,2.878,1.161,3.611,3.611,0,0,0,2.14-.633,3.812,3.812,0,0,0,.484-5.8Zm-2.194,3.126a.776.776,0,0,1-1.066-.04l-3.017-3.017a.776.776,0,0,1-.04-1.066.762.762,0,0,1,1.1-.026l3.047,3.047A.762.762,0,0,1,275.651,276.938Z" transform="translate(-266.501 -267.854)" fill="#cce9ed"/>
      </g>
    </g>
  </g>
</svg>
