<svg xmlns="http://www.w3.org/2000/svg" width="33.477" height="26.004" viewBox="0 0 33.477 26.004">
  <g id="friend" transform="translate(0 -57.142)">
    <g id="Gruppe_253" data-name="Gruppe 253" transform="translate(4.046 57.142)">
      <g id="Gruppe_252" data-name="Gruppe 252">
        <path id="Pfad_199" data-name="Pfad 199" d="M67.983,57.142a6.49,6.49,0,1,0,6.111,6.479A6.31,6.31,0,0,0,67.983,57.142Z" transform="translate(-61.873 -57.142)" fill="#cce9ed"/>
      </g>
    </g>
    <g id="Gruppe_255" data-name="Gruppe 255" transform="translate(18.807 58.069)">
      <g id="Gruppe_254" data-name="Gruppe 254" transform="translate(0 0)">
        <path id="Pfad_200" data-name="Pfad 200" d="M292.878,71.321h-.042A5.069,5.069,0,0,0,289.118,73a5.787,5.787,0,0,0,.064,7.8,5.071,5.071,0,0,0,3.7,1.62h.042a5.069,5.069,0,0,0,3.719-1.681,5.689,5.689,0,0,0,1.481-3.914A5.414,5.414,0,0,0,292.878,71.321Z" transform="translate(-287.637 -71.321)" fill="#cce9ed"/>
      </g>
    </g>
    <g id="Gruppe_257" data-name="Gruppe 257" transform="translate(17.651 70.233)">
      <g id="Gruppe_256" data-name="Gruppe 256" transform="translate(0 0)">
        <path id="Pfad_201" data-name="Pfad 201" d="M276.615,257.358h-.507a9.137,9.137,0,0,0-6.147,2.371,11.8,11.8,0,0,1,4.606,8.752h11.219v-1.953A9.181,9.181,0,0,0,276.615,257.358Z" transform="translate(-269.96 -257.358)" fill="#cce9ed"/>
      </g>
    </g>
    <g id="Gruppe_259" data-name="Gruppe 259" transform="translate(0 72.127)">
      <g id="Gruppe_258" data-name="Gruppe 258">
        <path id="Pfad_202" data-name="Pfad 202" d="M20.292,295.548a9.849,9.849,0,0,0-9.831-9.23H9.851A9.851,9.851,0,0,0,0,296.169v1.169H20.312v-1.169Q20.312,295.856,20.292,295.548Z" transform="translate(0 -286.318)" fill="#cce9ed"/>
      </g>
    </g>
  </g>
</svg>
