<svg id="news" xmlns="http://www.w3.org/2000/svg" width="26.004" height="26.004" viewBox="0 0 26.004 26.004">
  <g id="Gruppe_311" data-name="Gruppe 311">
    <path id="Pfad_212" data-name="Pfad 212" d="M25.076,6.5H20.432V.929A.929.929,0,0,0,19.5,0H.929A.929.929,0,0,0,0,.929V22.29A3.715,3.715,0,0,0,3.715,26H22.29A3.715,3.715,0,0,0,26,22.29V7.43A.929.929,0,0,0,25.076,6.5ZM7.43,4.644H13A.929.929,0,1,1,13,6.5H7.43a.929.929,0,1,1,0-1.857ZM15.788,22.29H4.644a.929.929,0,1,1,0-1.857H15.788a.929.929,0,0,1,0,1.857Zm0-3.715H4.644a.929.929,0,1,1,0-1.857H15.788a.929.929,0,1,1,0,1.857Zm0-3.715H4.644a.929.929,0,0,1,0-1.857H15.788a.929.929,0,0,1,0,1.857Zm0-3.715H4.644a.929.929,0,1,1,0-1.857H15.788a.929.929,0,0,1,0,1.857ZM24.147,22.29a1.857,1.857,0,0,1-3.715,0V8.359h3.715V22.29Z" fill="#cce9ed"/>
  </g>
</svg>
