<svg xmlns="http://www.w3.org/2000/svg" viewBox="0 0 257.52 257.52"><defs><style>.cls-1{fill:#00bba6;}.cls-2{fill:#7aa012;}.cls-3{fill:#83a525;}.cls-4{fill:#8dbc27;}.cls-5{fill:#ff9200;}.cls-6{fill:#d87703;}.cls-7{fill:#e6e6e6;}.cls-8{fill:#ccc;}.cls-9{fill:#fff;}.cls-10{fill:none;stroke:#0f0f0e;stroke-linejoin:round;stroke-width:13px;}.cls-11{fill:#0f0f0e;}.cls-12{fill:#f2f2f2;}.cls-13{fill:#807272;}</style></defs><g id="Ebene_2" data-name="Ebene 2"><g id="Ebene_1-2" data-name="Ebene 1"><path id="Pfad_118" data-name="Pfad 118" class="cls-1" d="M257.52,128.77a130.67,130.67,0,0,1-2.77,26.75,127.7,127.7,0,0,1-8.5,26.06,129.68,129.68,0,0,1-24.79,36.61c-1.61,1.66-3.27,3.32-5,4.88a131.54,131.54,0,0,1-14.59,11.72,128.91,128.91,0,0,1-146.21,0A130.29,130.29,0,0,1,41.1,223.07c-1.71-1.61-3.37-3.22-5-4.88a127.52,127.52,0,0,1-8.45-9.66,131.93,131.93,0,0,1-10-14.53A127.25,127.25,0,0,1,2.78,155.52,130,130,0,0,1,0,128.77c0-1.76.05-3.53.1-5.29a128.76,128.76,0,0,1,257.31,0C257.47,125.24,257.52,127,257.52,128.77Z"/><g id="Gruppe_98" data-name="Gruppe 98"><path id="Pfad_119" data-name="Pfad 119" class="cls-2" d="M257.52,128.77a130.67,130.67,0,0,1-2.77,26.75H215.67a4.83,4.83,0,0,1-3.42-8.25L227,132.54a4.74,4.74,0,0,0,1.41-3.37,4.81,4.81,0,0,0-4.74-4.88h-.09a4.82,4.82,0,0,1-3.42-8.25l11.41-11.42a4.82,4.82,0,0,0-3.42-8.24h-.8a4.83,4.83,0,0,1-3.42-8.25l19-19a128.26,128.26,0,0,1,14.58,54.43C257.46,125.24,257.52,127,257.52,128.77Z"/><path id="Pfad_120" data-name="Pfad 120" class="cls-2" d="M41.9,155.52H2.77A130,130,0,0,1,0,128.77c0-1.76.05-3.53.1-5.29A127.9,127.9,0,0,1,14.69,69.06l19,19a4.82,4.82,0,0,1-3.42,8.24h-.8a4.82,4.82,0,0,0-3.42,8.25l11.41,11.42a4.66,4.66,0,0,1,1.41,3.37,4.8,4.8,0,0,1-4.73,4.88h-.09a4.82,4.82,0,0,0-3.42,8.25l14.74,14.73a4.94,4.94,0,0,1-3.47,8.35Z"/></g><path id="Pfad_121" data-name="Pfad 121" class="cls-3" d="M246.25,181.58a129.5,129.5,0,0,1-24.8,36.61H36.11q-4.45-4.6-8.45-9.66V194h-10a126.89,126.89,0,0,1-6.43-12.42L21.83,171a4.66,4.66,0,0,0,1.41-3.37,4.81,4.81,0,0,0-4.75-4.88h-.13a4.82,4.82,0,0,1-3.42-8.24L26.36,143.1a4.82,4.82,0,0,0-3.42-8.25h-.8a4.82,4.82,0,0,1-3.42-8.25L46.08,99.24a4.8,4.8,0,0,1,6.78-.06l.06.06L80.27,126.6a4.82,4.82,0,0,1-3.42,8.25h-.8a4.82,4.82,0,0,0-3.42,8.25L84,154.51a4.67,4.67,0,0,1,1.41,3.37,4.8,4.8,0,0,1-4.73,4.88h-.1A4.83,4.83,0,0,0,77.2,171l11.72,11.72L100.64,171a4.82,4.82,0,0,0-3.42-8.25,4.83,4.83,0,0,1-3.42-8.25l11.42-11.41a4.82,4.82,0,0,0-3.42-8.25H101a4.82,4.82,0,0,1-3.41-8.25l27.36-27.36a4.8,4.8,0,0,1,6.78-.06l.06.06,27.36,27.36a4.83,4.83,0,0,1-3.42,8.25h-.81a4.82,4.82,0,0,0-3.41,8.25l11.41,11.41a4.67,4.67,0,0,1,1.41,3.37,4.8,4.8,0,0,1-4.73,4.88h-.1a4.83,4.83,0,0,0-3.42,8.25l12.12,12.12L180.32,171a4.67,4.67,0,0,0,1.4-3.37,4.8,4.8,0,0,0-4.73-4.88h-.09a4.82,4.82,0,0,1-3.42-8.25l11.41-11.41a4.82,4.82,0,0,0-3.42-8.25h-.8a4.83,4.83,0,0,1-3.42-8.25l27.36-27.36a4.8,4.8,0,0,1,6.78-.06l.06.06,27.36,27.36a4.82,4.82,0,0,1-3.42,8.25h-.8a4.82,4.82,0,0,0-3.42,8.25l11.41,11.41a4.67,4.67,0,0,1,1.41,3.37,4.8,4.8,0,0,1-4.73,4.88h-.1a4.82,4.82,0,0,0-3.41,8.25Z"/><path id="Pfad_122" data-name="Pfad 122" class="cls-4" d="M257.52,128.77a128.44,128.44,0,0,1-41.1,94.3,131.43,131.43,0,0,1-14.58,11.72,128.83,128.83,0,0,1-146.16,0,130.4,130.4,0,0,1-14.59-11.72A128.43,128.43,0,0,1,0,128.77c0-1.76.05-3.53.1-5.29l6.19-6.18a4.79,4.79,0,0,1,6.78-.06l.06.06,27.36,27.36a4.83,4.83,0,0,1,0,6.82,4.88,4.88,0,0,1-3.46,1.43h-.8a4.82,4.82,0,0,0-3.42,8.25l11.41,11.41a4.75,4.75,0,0,1,1.41,3.37,4.82,4.82,0,0,1-4.76,4.88h-.12a4.82,4.82,0,0,0-3.42,8.25l12.12,12.12,12.12-12.12A4.66,4.66,0,0,0,63,185.7a4.81,4.81,0,0,0-4.73-4.88h-.1a4.83,4.83,0,0,1-3.42-8.25l11.42-11.41a4.82,4.82,0,0,0-3.42-8.25H62a4.82,4.82,0,0,1-3.42-8.25L85.91,117.3a4.8,4.8,0,0,1,6.79-.06l0,.06,27.36,27.36a4.82,4.82,0,0,1-3.41,8.25h-.81a4.83,4.83,0,0,0-3.42,8.25l11.42,11.41a4.74,4.74,0,0,1,1.41,3.37,4.81,4.81,0,0,1-4.73,4.88h-.1a4.82,4.82,0,0,0-3.42,8.25l11.72,11.72,11.72-11.72a4.69,4.69,0,0,0,1.4-3.37,4.81,4.81,0,0,0-4.75-4.88H137a4.82,4.82,0,0,1-3.42-8.25L145,161.16a4.82,4.82,0,0,0-3.42-8.25h-.8a4.83,4.83,0,0,1-3.42-8.25l27.36-27.36a4.79,4.79,0,0,1,6.78-.06l.06.06,27.36,27.36a4.82,4.82,0,0,1-3.42,8.25h-.8a4.82,4.82,0,0,0-3.42,8.25l11.41,11.41a4.66,4.66,0,0,1,1.41,3.37,4.8,4.8,0,0,1-4.73,4.88h-.1a4.82,4.82,0,0,0-3.41,8.25L208,201.19l12.12-12.12a4.74,4.74,0,0,0,1.41-3.37,4.81,4.81,0,0,0-4.73-4.88h-.1a4.82,4.82,0,0,1-3.42-8.25l11.42-11.41a4.83,4.83,0,0,0,0-6.82,4.78,4.78,0,0,0-3.45-1.43h-.81a4.83,4.83,0,0,1-3.42-8.25L244.4,117.3a4.8,4.8,0,0,1,6.79-.06l.05.06,6.19,6.18C257.47,125.24,257.52,127,257.52,128.77Z"/><path id="Pfad_123" data-name="Pfad 123" class="cls-5" d="M201.84,234.79a128.83,128.83,0,0,1-146.16,0c-.66-50.25,18.61-79.07,18.61-79.07h109S202.54,184.49,201.84,234.79Z"/><path id="Pfad_124" data-name="Pfad 124" class="cls-6" d="M91.29,252a128.85,128.85,0,0,1-35.61-17.2c-.66-50.25,18.61-79.07,18.61-79.07h26.5l6.43,10S89.38,195.56,91.29,252Z"/><path id="Pfad_125" data-name="Pfad 125" class="cls-7" d="M166.52,217.48l-7.34-7.34a3.91,3.91,0,0,0-5.53,0,4,4,0,0,0-.86,1.29,174.61,174.61,0,0,1-16,30.94q-2.49,3.68-5.33,7.09a4.15,4.15,0,0,1-5.85.49,3.78,3.78,0,0,1-.49-.49c-9.95-11.72-17.75-29.22-21.33-38.07a3.9,3.9,0,0,0-5.09-2.17,4,4,0,0,0-1.29.86l-7.35,7.35a4.16,4.16,0,0,1-5.89,0,4.43,4.43,0,0,1-.8-1.11c-11.66-24.24.11-46.62,4.73-53.91,1-1.61,1.71-2.52,1.71-2.52h77s20.67,26.81,6.48,56.38a4.21,4.21,0,0,1-5.61,2A4.42,4.42,0,0,1,166.52,217.48Z"/><path id="Pfad_126" data-name="Pfad 126" class="cls-8" d="M89.88,159.9l.1,3.37-1.81-.86c-4.63,7.3-16.45,29.68-4.73,53.92A4.15,4.15,0,0,0,89,218.26a4.09,4.09,0,0,0,1.15-.82l7.35-7.35a3.91,3.91,0,0,1,5.53,0,3.85,3.85,0,0,1,.85,1.3c3.57,8.85,11.37,26.31,21.33,38.08a4.18,4.18,0,0,0,5.9.43,5.93,5.93,0,0,0,.44-.43,76.89,76.89,0,0,0,5.33-7.1l-5.44-11.66a2.85,2.85,0,0,0-5.18.05,2.24,2.24,0,0,1-4,.25c-7.29-12-11.67-27.87-13.53-35.56A1.35,1.35,0,0,1,111,194.2l5.94,5.93a1.35,1.35,0,0,0,1.91,0,1.32,1.32,0,0,0,.4-1.08l-.9-11a2,2,0,0,1,3.82-1,78.24,78.24,0,0,0,7.5,12.77,1.91,1.91,0,0,0,2.67.38,1.88,1.88,0,0,0,.45-.48l10.31-16.35a1.91,1.91,0,0,1,3.52,1v1.81a2.85,2.85,0,0,0,5.13,1.71c5.68-7.49,12.78-18,12.78-18Z"/><path id="Pfad_127" data-name="Pfad 127" class="cls-7" d="M88.82,191.43A38.54,38.54,0,0,0,90.73,198a1.82,1.82,0,0,0,2.34,1,1.79,1.79,0,0,0,1.13-1.61l.36-9.8a2.19,2.19,0,0,0-3.32-1.92h0A5.62,5.62,0,0,0,88.82,191.43Z"/><path id="Pfad_128" data-name="Pfad 128" class="cls-5" d="M197.77,165.93l-16.5,5.39-44,14.28a28.51,28.51,0,0,1-8.2,1.36h-.6a27.2,27.2,0,0,1-8.2-1.36l-44-14.28-16.49-5.39a23.86,23.86,0,0,1-16.15-26.76l2.06-12L51.1,95.62a79.41,79.41,0,0,1,4.73-16.5L83.49,47.64a46.08,46.08,0,0,1,19.16-13c.06,0,.11,0,.16,0a78.3,78.3,0,0,1,51.9,0s.11,0,.16,0a45.71,45.71,0,0,1,19.16,13l27.66,31.48a79,79,0,0,1,4.73,16.5l5.43,31.54,2.06,12A23.87,23.87,0,0,1,197.77,165.93Z"/><path id="Pfad_129" data-name="Pfad 129" class="cls-6" d="M123,185.6a13.21,13.21,0,0,0,5.44,1.36,28.17,28.17,0,0,1-8.15-1.36l-44-14.28-16.5-5.39a23.87,23.87,0,0,1-16.14-26.76l7.49-43.6a79.41,79.41,0,0,1,4.73-16.5L83.49,47.64a46,46,0,0,1,19.11-13c.05,0,.11,0,.16,0a78,78,0,0,1,26-4.42,37.94,37.94,0,0,0-17.65,4.42C108,36.12,75.9,63,75.9,95.42v.15l-5.09,43.6c-1.36,11.67,3.32,23.09,11,26.76L93,171.31Z"/><path id="Pfad_130" data-name="Pfad 130" class="cls-9" d="M197.77,165.93l-16.5,5.39-44,14.28h0a27.62,27.62,0,0,1-8.8,1.31h0a29.34,29.34,0,0,1-8.05-1.31h0l-22.18-7.2-21.83-7.09-16.5-5.38a23.88,23.88,0,0,1-16.14-26.76l2.06-12a72.77,72.77,0,0,0,13.68,13.08,25.36,25.36,0,0,0,32.54-2.16,52.58,52.58,0,0,1,73.64,0,25.23,25.23,0,0,0,32.54,2.11,72.72,72.72,0,0,0,13.68-13.07l2.07,12A23.74,23.74,0,0,1,197.77,165.93Z"/><line id="Linie_2" data-name="Linie 2" class="cls-10" x1="190.42" y1="59.91" x2="190.42" y2="59.86"/><path id="Pfad_131" data-name="Pfad 131" class="cls-11" d="M146.46,143.5c0,6.43-8,15.34-17.7,15.34s-17.71-8.9-17.71-15.34,8-7.94,17.71-7.94S146.46,137.06,146.46,143.5Z"/><path id="Pfad_132" data-name="Pfad 132" class="cls-12" d="M217.78,10.07s23.39,50.64-20.47,73h0c-.2-.36-14.48-17.71-5.53-36,4.83-9.81,18.66-24.9,25.4-36.82A2.49,2.49,0,0,1,217.78,10.07Z"/><path id="Pfad_133" data-name="Pfad 133" class="cls-8" d="M204,25.91s9.1,6.29,4.58,26.25-16.9,23.9-16.9,23.9L178.75,58.45"/><path id="Pfad_134" data-name="Pfad 134" class="cls-6" d="M217.13,10.22c-6.74,12-15,27-19.82,36.81-8.95,18.31-.2,35.66,0,36L179.55,63.28a22,22,0,0,1-3.17-25C181.57,28.58,192.78,16.86,217.13,10.22Z"/><path id="Pfad_135" data-name="Pfad 135" class="cls-11" d="M217.13,10.22c-6.74,12-15,27-19.82,36.81a23.69,23.69,0,0,1-13.13-19.26h0C190.87,21.08,201.18,14.54,217.13,10.22Z"/><path id="Pfad_136" data-name="Pfad 136" class="cls-12" d="M39.73,10.07S16.35,60.71,60.2,83.1h0c.2-.36,14.49-17.71,5.54-36C61,37.23,47.08,22.19,40.39,10.22Z"/><path id="Pfad_137" data-name="Pfad 137" class="cls-8" d="M53.56,25.91S44.46,32.2,49,52.16s16.9,23.9,16.9,23.9L78.76,58.45"/><path id="Pfad_138" data-name="Pfad 138" class="cls-6" d="M40.39,10.22c6.74,12,15,27,19.82,36.81,8.95,18.31.2,35.66,0,36L85.5,54.83S87.47,23,40.39,10.22Z"/><path id="Pfad_139" data-name="Pfad 139" class="cls-11" d="M40.39,10.22c6.74,12,15,27,19.82,36.81A23.7,23.7,0,0,0,73.33,27.77h0C66.64,21.08,56.33,14.54,40.39,10.22Z"/><path id="Pfad_140" data-name="Pfad 140" class="cls-7" d="M128.36,186.91a29.27,29.27,0,0,1-8.05-1.31h0l-22.18-7.2-21.83-7.09-16.5-5.38a23.87,23.87,0,0,1-16.14-26.76l2.06-12a72.77,72.77,0,0,0,13.68,13.08,24.79,24.79,0,0,0,11.27,4.62c.46,9.51,4.77,18,11.16,21.08L93,171.31l29.92,14.28A14.44,14.44,0,0,0,128.36,186.91Z"/><g id="Gruppe_99" data-name="Gruppe 99"><path id="Pfad_141" data-name="Pfad 141" class="cls-6" d="M165.27,131.53A12.62,12.62,0,0,1,162,106.74a11.74,11.74,0,0,1,3.27-.46,12.63,12.63,0,0,1,12.63,12.62,12,12,0,0,1-.46,3.27A12.5,12.5,0,0,1,165.27,131.53Z"/><path id="Pfad_142" data-name="Pfad 142" class="cls-6" d="M92.24,131.53A12.61,12.61,0,0,1,89,106.74a11.74,11.74,0,0,1,3.27-.46,12.63,12.63,0,0,1,12.63,12.62,12,12,0,0,1-.46,3.27A12.59,12.59,0,0,1,92.24,131.53Z"/></g><g id="Gruppe_100" data-name="Gruppe 100"><path id="Pfad_143" data-name="Pfad 143" class="cls-11" d="M172.11,116.29a6.84,6.84,0,1,1-8.65-6.64,6.82,6.82,0,0,1,8.65,6.64Z"/><circle id="Ellipse_14" data-name="Ellipse 14" class="cls-11" cx="92.24" cy="116.29" r="6.84"/></g><g id="Gruppe_101" data-name="Gruppe 101"><path id="Pfad_144" data-name="Pfad 144" class="cls-7" d="M172.11,116.29a6.51,6.51,0,0,1-.25,1.76,6.63,6.63,0,0,1-2.66.61,6.3,6.3,0,0,1-6.29-6.3h0a6,6,0,0,1,.6-2.67,7.05,7.05,0,0,1,1.76-.25A6.85,6.85,0,0,1,172.11,116.29Z"/><path id="Pfad_145" data-name="Pfad 145" class="cls-7" d="M99.08,116.29a6.51,6.51,0,0,1-.25,1.76,6.63,6.63,0,0,1-2.66.61,6.3,6.3,0,0,1-6.29-6.3h0a6,6,0,0,1,.6-2.67,7.05,7.05,0,0,1,1.76-.25A6.85,6.85,0,0,1,99.08,116.29Z"/></g><circle id="Ellipse_15" data-name="Ellipse 15" class="cls-13" cx="137.71" cy="142.85" r="4.73"/></g></g></svg>