<svg xmlns="http://www.w3.org/2000/svg" viewBox="0 0 141.47 91.17"><defs><style>.cls-1{fill:#00636e;}</style></defs><g id="Ebene_2" data-name="Ebene 2"><g id="Ebene_1-2" data-name="Ebene 1"><g id="vision"><g id="Gruppe_256" data-name="Gruppe 256"><g id="Gruppe_255" data-name="Gruppe 255"><path id="Pfad_205" data-name="Pfad 205" class="cls-1" d="M140.69,43.16C139.43,41.4,109.32,0,71,0S2,41.4.78,43.16A4.13,4.13,0,0,0,.78,48C2,49.75,32.7,91.17,71,91.17S139.44,49.75,140.7,48A4.14,4.14,0,0,0,140.69,43.16ZM71,74.61a29,29,0,1,1-1-58h1a29,29,0,0,1,0,58Z"/></g></g><g id="Gruppe_258" data-name="Gruppe 258"><g id="Gruppe_257" data-name="Gruppe 257"><path id="Pfad_206" data-name="Pfad 206" class="cls-1" d="M71,33.16A12.44,12.44,0,1,0,69.92,58,9.91,9.91,0,0,0,71,58a12.43,12.43,0,0,0,0-24.86Z"/></g></g></g></g></g></svg>