<?xml version="1.0" encoding="utf-8"?>
<!-- Generator: Adobe Illustrator 24.1.2, SVG Export Plug-In . SVG Version: 6.00 Build 0)  -->
<svg version="1.1" id="Capa_1" xmlns="http://www.w3.org/2000/svg" xmlns:xlink="http://www.w3.org/1999/xlink" x="0px" y="0px"
	 viewBox="0 0 469.4 469.4" style="enable-background:new 0 0 469.4 469.4;" xml:space="preserve">
<style type="text/css">
	.st0{fill:#00636E;}
</style>
<g>
	<g>
		<g>
			<path class="st0" d="M231.1,160.4l67.2,67.2l0.3-3.5c0-35.3-28.7-64-64-64L231.1,160.4z"/>
			<path class="st0" d="M234.7,117.4c58.9,0,106.7,47.8,106.7,106.7c0,13.8-2.8,26.9-7.6,38.9l62.4,62.4
				c32.2-26.9,57.6-61.7,73.3-101.3c-37-93.7-128-160-234.8-160c-29.9,0-58.5,5.3-85,14.9l46.1,46
				C207.8,120.3,220.9,117.4,234.7,117.4z"/>
			<path class="st0" d="M21.3,59.3L70,107.9l9.7,9.7c-35.2,27.5-63,64.1-79.7,106.5c36.9,93.7,128,160,234.7,160
				c33.1,0,64.6-6.4,93.5-18l9.1,9.1l62.2,62.3l27.2-27.1L48.5,32.1L21.3,59.3z M139.3,177.1l33,33c-1,4.6-1.6,9.2-1.6,14
				c0,35.3,28.7,64,64,64c4.8,0,9.4-0.6,13.9-1.6l33,33c-14.2,7-30,11.3-46.8,11.3c-58.9,0-106.7-47.8-106.7-106.7
				C128,207.2,132.3,191.4,139.3,177.1z"/>
		</g>
	</g>
</g>
</svg>
