<svg id="user_1_" data-name="user (1)" xmlns="http://www.w3.org/2000/svg" width="13.935" height="15.855" viewBox="0 0 13.935 15.855">
  <g id="Gruppe_260" data-name="Gruppe 260">
    <path id="Pfad_208" data-name="Pfad 208" d="M40.754,10.281h-.7a.426.426,0,0,1-.289-.742A8.027,8.027,0,0,0,42.148,4.18a4.18,4.18,0,0,0-8.361,0,8.027,8.027,0,0,0,2.377,5.359.426.426,0,0,1-.289.742h-.7A4.185,4.185,0,0,0,31,14.461v.929a.464.464,0,0,0,.464.464H44.47a.464.464,0,0,0,.464-.464v-.929A4.185,4.185,0,0,0,40.754,10.281Z" transform="translate(-31)" fill="#0a636e"/>
  </g>
</svg>
