<?xml version="1.0" encoding="utf-8"?>
<!-- Generator: Adobe Illustrator 24.1.2, SVG Export Plug-In . SVG Version: 6.00 Build 0)  -->
<svg version="1.1" id="Komponente_12_1" xmlns="http://www.w3.org/2000/svg" xmlns:xlink="http://www.w3.org/1999/xlink" x="0px"
	 y="0px" viewBox="0 0 70 70" style="enable-background:new 0 0 70 70;" xml:space="preserve">
<style type="text/css">
	.st0{fill:#FFFFFF;}
	.st1{fill:#F5DCB4;}
	.st2{fill:#965A50;}
	.st3{fill:#4B3F4E;}
	.st4{fill:#5D5360;}
	.st5{fill:#824641;}
	.st6{fill:#E7C9A5;}
	.st7{fill:#BC8E78;}
	.st8{fill:#FF8087;}
	.st9{fill:#E6646E;}
	.st10{fill:#D4AF91;}
</style>
<rect class="st0" width="70.4" height="70.4"/>
<rect x="0.2" y="0.2" class="st0" width="70" height="70"/>
<g>
	<path class="st1" d="M55.5,12.9h-9.2c-3.3,1.4-4.1-1-11.1-1s-7.7,2.3-11.1,1h-9.2l-1.2,23.9c0.8,9.4,6.4,14.5,10.9,16.4h21.3
		c4.5-1.9,10.1-7,10.9-16.4L55.5,12.9z"/>
	<path class="st2" d="M46.3,12.9c10.4,3.2,4.7,19.8,11.4,26.9c1,1,2.7,0.6,3.1-0.8c0.5-1.8,1.1-4.7,1-8.7c-0.1-5.6,2.1-6,2.1-6
		S61.1,11,52.8,11C50,11,46.3,12.9,46.3,12.9z"/>
	<path class="st3" d="M25.5,37.7L25.5,37.7c-1.8,0-3.2-1.5-3.2-3.3v-1.9c0-1.8,1.5-3.3,3.2-3.3l0,0c1.8,0,3.2,1.5,3.2,3.3v1.9
		C28.7,36.2,27.3,37.7,25.5,37.7z"/>
	<path class="st4" d="M25.5,29.1c-0.2,0-0.3,0-0.5,0v4.7c0,1.1,0.8,1.9,1.8,1.9c1,0,1.8-0.9,1.8-1.9v-1.4
		C28.7,30.6,27.3,29.1,25.5,29.1z"/>
	<ellipse class="st0" cx="25.5" cy="31.5" rx="1.4" ry="1.4"/>
	<path class="st3" d="M44.9,37.7L44.9,37.7c-1.8,0-3.2-1.5-3.2-3.3v-1.9c0-1.8,1.5-3.3,3.2-3.3l0,0c1.8,0,3.2,1.5,3.2,3.3v1.9
		C48.1,36.2,46.7,37.7,44.9,37.7z"/>
	<path class="st4" d="M44.9,29.1c-0.2,0-0.3,0-0.5,0v4.7c0,1.1,0.8,1.9,1.8,1.9c1,0,1.8-0.9,1.8-1.9v-1.4
		C48.1,30.6,46.7,29.1,44.9,29.1z"/>
	<ellipse class="st0" cx="44.9" cy="31.5" rx="1.4" ry="1.4"/>
	<path class="st5" d="M57.7,39.8c1,1,2.7,0.6,3.1-0.8c0.3-1,0.6-2.4,0.8-4.2c-1.8-0.9-3.4-3.9-4.3-9c-1.7-9.2-4.2-14.3-11-13
		C56.7,16.1,51,32.7,57.7,39.8z"/>
	<path class="st6" d="M24.5,53.2h4.4c0,0-7.7-5.3-9-14.7c-2.5-18.3,2.2-23.8,6.3-25.2c-0.6,0-1.3-0.1-2.1-0.4h-9.2l-1.2,23.9
		C14.4,46.2,20.1,51.4,24.5,53.2z"/>
	<path class="st2" d="M24.1,12.9c-10.4,3.2-4.7,19.8-11.4,26.9c-1,1-2.7,0.6-3.1-0.8c-0.5-1.8-1.1-4.7-1-8.7c0.1-5.6-2.1-6-2.1-6
		S9.3,11,17.6,11C20.4,11,24.1,12.9,24.1,12.9z"/>
	<path class="st5" d="M23.8,12.7c-0.9-0.4-3.9-1.8-6.2-1.8C9.3,11,6.6,24.3,6.6,24.3s2.2,0.4,2.1,6c0,0.1,0,0.1,0,0.2
		C14,9.7,22.1,12,23.8,12.7z"/>
	<ellipse class="st7" cx="35.2" cy="53.9" rx="10.2" ry="7.6"/>
	<path class="st8" d="M30.6,53.9v4.8c0,2.6,2.1,4.8,4.6,4.8c2.6,0,4.6-2.1,4.6-4.8v-4.8H30.6z"/>
	<path class="st9" d="M30.6,57.6c1.3-0.2,2.6-0.6,3.7-1.2v1.3c0,0.5,0.4,1,0.9,1c0.5,0,0.9-0.4,0.9-1v-1.3c1.1,0.6,2.4,1.1,3.7,1.2
		v-3.7h-9.2V57.6z"/>
	<path class="st10" d="M41.2,45.3h-12c-3.8,0-6.9,2.3-6.9,5.2s3.1,5.2,6.9,5.2c1.9,0,3.7-0.6,4.9-1.6c0.3-0.2,0.7-0.4,1.1-0.4
		c0.4,0,0.8,0.1,1.1,0.4c1.3,1,3,1.6,4.9,1.6c3.8,0,6.9-2.3,6.9-5.2C48.1,47.6,45,45.3,41.2,45.3z"/>
	<path class="st4" d="M35.2,41.5c3.1,0,5.5,1.7,5.5,3.8c0,2-2.3,3.1-4,3.9c-1,0.5-2.1,0.5-3.1,0c-1.7-0.8-4-1.9-4-3.9
		C29.7,43.2,32.1,41.5,35.2,41.5z"/>
	<path class="st3" d="M32.4,44.2c-0.1-1.2,0.7-2.5,0.7-2.5c-2,0.6-3.4,1.9-3.4,3.5c0,2,2.3,3.1,4,3.9c1,0.5,2.1,0.5,3.1,0
		c0.4-0.2,0.8-0.4,1.1-0.6C35.6,48.2,32.7,46.6,32.4,44.2z"/>
	<g>
	</g>
	<g>
	</g>
	<g>
	</g>
	<g>
	</g>
	<g>
	</g>
	<g>
	</g>
	<g>
	</g>
	<g>
	</g>
	<g>
	</g>
	<g>
	</g>
	<g>
	</g>
	<g>
	</g>
	<g>
	</g>
	<g>
	</g>
	<g>
	</g>
</g>
</svg>
