<?xml version="1.0" encoding="utf-8"?>
<!-- Generator: Adobe Illustrator 24.1.2, SVG Export Plug-In . SVG Version: 6.00 Build 0)  -->
<svg version="1.1" id="Komponente_12_1" xmlns="http://www.w3.org/2000/svg" xmlns:xlink="http://www.w3.org/1999/xlink" x="0px"
	 y="0px" viewBox="0 0 70 70" style="enable-background:new 0 0 70 70;" xml:space="preserve">
<style type="text/css">
	.st0{fill:#FFFFFF;}
	.st1{fill:#FFC850;}
	.st2{fill:#EBAF4B;}
	.st3{fill:#FFDC64;}
	.st4{fill:#FF8087;}
	.st5{fill:#5D5360;}
	.st6{fill:#E1A546;}
	.st7{fill:#4B3F4E;}
	.st8{fill:#E6646E;}
</style>
<rect class="st0" width="70.4" height="70.4"/>
<rect x="0.2" y="0.2" class="st0" width="70" height="70"/>
<g>
	<path class="st1" d="M55,8.4c1.2-0.9,2.9-0.1,2.9,1.4v23.6L38.5,21.9L55,8.4z"/>
	<path class="st2" d="M56.1,32.3l-11.8-7l9.8-11.1c0.7-0.8,2-0.3,2,0.7V32.3z"/>
	<path class="st1" d="M14.9,8.4c-1.2-0.9-2.9-0.1-2.9,1.4v23.6l19.4-11.4L14.9,8.4z"/>
	<path class="st2" d="M13.8,32.3l11.8-7l-9.8-11.1c-0.7-0.8-2-0.3-2,0.7V32.3z"/>
	<ellipse class="st3" cx="35" cy="39.1" rx="24.6" ry="23.3"/>
	<path class="st4" d="M38.5,53.6v1.8c0,1.9-1.6,3.5-3.5,3.5l0,0c-1.9,0-3.5-1.6-3.5-3.5v-1.8l3.5-1.8L38.5,53.6z"/>
	<path class="st5" d="M36.9,44.5H33c-0.8,0-1.3,1-0.8,1.6l1.9,2.4c0.4,0.5,1.2,0.5,1.6,0l1.9-2.4C38.2,45.5,37.7,44.5,36.9,44.5z"/>
	<g>
		<path class="st6" d="M58.7,54.5c-0.1,0-0.3,0-0.4-0.1c-5.3-2.8-13.6-4.4-13.7-4.4c-0.5-0.1-0.8-0.6-0.7-1c0.1-0.5,0.6-0.8,1-0.7
			c0.4,0.1,8.7,1.7,14.2,4.6c0.4,0.2,0.6,0.8,0.4,1.2C59.3,54.3,59,54.5,58.7,54.5z"/>
		<path class="st6" d="M60.5,48.3c-0.1,0-0.2,0-0.2,0c-4.9-1.3-13.9-1.1-14-1.1c-0.5,0-0.9-0.4-0.9-0.9c0-0.5,0.4-0.9,0.9-0.9
			c0.4,0,9.3-0.3,14.5,1.1c0.5,0.1,0.7,0.6,0.6,1.1C61.2,48,60.9,48.3,60.5,48.3z"/>
	</g>
	<path class="st1" d="M41.1,60.6c-13.6,0-24.6-10.4-24.6-23.3c0-9.5,6-17.6,14.5-21.3c-11.7,1.8-20.7,11.4-20.7,23
		c0,12.9,11,23.3,24.6,23.3c3.6,0,7-0.7,10.1-2.1C43.8,60.5,42.5,60.6,41.1,60.6z"/>
	<g>
		<path class="st6" d="M11.2,54.5c-0.3,0-0.6-0.2-0.8-0.5c-0.2-0.4-0.1-1,0.4-1.2c5.5-2.9,13.9-4.5,14.2-4.6c0.5-0.1,0.9,0.2,1,0.7
			c0.1,0.5-0.2,0.9-0.7,1c-0.1,0-8.4,1.7-13.7,4.4C11.5,54.4,11.3,54.5,11.2,54.5z"/>
		<path class="st6" d="M9.4,48.3c-0.4,0-0.7-0.3-0.8-0.7c-0.1-0.5,0.2-1,0.6-1.1c5.2-1.4,14.1-1.1,14.5-1.1c0.5,0,0.9,0.4,0.9,0.9
			c0,0.5-0.4,0.9-0.9,0.9c-0.1,0-9.1-0.3-14,1.1C9.6,48.3,9.5,48.3,9.4,48.3z"/>
	</g>
	<path class="st7" d="M24.8,42.1L24.8,42.1c-1.7,0-3.1-1.4-3.1-3.1v-1.8c0-1.7,1.4-3.1,3.1-3.1l0,0c1.7,0,3.1,1.4,3.1,3.1v1.8
		C27.9,40.8,26.5,42.1,24.8,42.1z"/>
	<path class="st5" d="M24.8,34.2c-0.2,0-0.3,0-0.4,0v4.4c0,1,0.8,1.8,1.8,1.8s1.8-0.8,1.8-1.8v-1.3C27.9,35.6,26.5,34.2,24.8,34.2z"
		/>
	<circle class="st0" cx="24.8" cy="36.4" r="1.3"/>
	<path class="st7" d="M45.1,42.1L45.1,42.1c-1.7,0-3.1-1.4-3.1-3.1v-1.8c0-1.7,1.4-3.1,3.1-3.1l0,0c1.7,0,3.1,1.4,3.1,3.1v1.8
		C48.2,40.8,46.8,42.1,45.1,42.1z"/>
	<path class="st5" d="M45.1,34.2c-0.2,0-0.3,0-0.4,0v4.4c0,1,0.8,1.8,1.8,1.8c1,0,1.8-0.8,1.8-1.8v-1.3
		C48.2,35.6,46.8,34.2,45.1,34.2z"/>
	<circle class="st0" cx="45.1" cy="36.4" r="1.3"/>
	<path class="st7" d="M35.6,48.6l-1.9-3.8c0-0.1-0.1-0.1-0.1-0.2H33c-0.8,0-1.3,1-0.8,1.6l1.9,2.4C34.6,49,35.2,49,35.6,48.6
		C35.6,48.6,35.6,48.6,35.6,48.6z"/>
	<path class="st8" d="M35,51.8l-3.5,1.8v1.8c0,0.3,0,0.5,0.1,0.8c0.9-0.1,1.7-0.4,2.5-0.8v0.8c0,0.5,0.4,0.9,0.9,0.9
		s0.9-0.4,0.9-0.9v-0.8c0.8,0.4,1.7,0.6,2.5,0.8c0.1-0.3,0.1-0.5,0.1-0.8v-1.8L35,51.8z"/>
	<path class="st2" d="M39.4,54.5c-1.2,0-2.4-0.4-3.5-1.1c-0.5-0.4-1.3-0.4-1.9,0c-1,0.7-2.2,1.1-3.5,1.1c-1.5,0-3-0.6-4.1-1.6
		c-0.4-0.3-0.4-0.9-0.1-1.2c0.3-0.4,0.9-0.4,1.2-0.1c1.5,1.3,3.8,1.5,5.4,0.4c1.2-0.8,2.7-0.8,3.8,0c1.6,1.1,3.9,1,5.4-0.4
		c0.4-0.3,0.9-0.3,1.2,0.1c0.3,0.4,0.3,0.9-0.1,1.2C42.3,53.9,40.9,54.5,39.4,54.5z"/>
	<g>
	</g>
	<g>
	</g>
	<g>
	</g>
	<g>
	</g>
	<g>
	</g>
	<g>
	</g>
	<g>
	</g>
	<g>
	</g>
	<g>
	</g>
	<g>
	</g>
	<g>
	</g>
	<g>
	</g>
	<g>
	</g>
	<g>
	</g>
	<g>
	</g>
</g>
</svg>
