<?xml version="1.0" encoding="utf-8"?>
<!-- Generator: Adobe Illustrator 24.1.2, SVG Export Plug-In . SVG Version: 6.00 Build 0)  -->
<svg version="1.1" id="Komponente_12_1" xmlns="http://www.w3.org/2000/svg" xmlns:xlink="http://www.w3.org/1999/xlink" x="0px"
	 y="0px" viewBox="0 0 70 70" style="enable-background:new 0 0 70 70;" xml:space="preserve">
<style type="text/css">
	.st0{fill:#FFFFFF;}
	.st1{fill:#965A50;}
	.st2{fill:#EBC9A0;}
	.st3{fill:#AF6E5A;}
	.st4{fill:#FAEBC8;}
	.st5{fill:#F5DCB4;}
	.st6{fill:#5D5360;}
	.st7{fill:#4B3F4E;}
	.st8{fill:#E6646E;}
	.st9{fill:#FF8087;}
</style>
<rect class="st0" width="70.4" height="70.4"/>
<rect x="0.2" y="0.2" class="st0" width="70" height="70"/>
<g>
	<circle class="st1" cx="13" cy="31.7" r="7.5"/>
	<circle class="st2" cx="13" cy="31.7" r="4.7"/>
	<circle class="st1" cx="56" cy="31.7" r="7.5"/>
	<circle class="st2" cx="56" cy="31.7" r="4.7"/>
	<path class="st3" d="M55.6,36.1c-0.9-1.6-1.5-3.5-1.5-5.4v0c0-8.2-5-15.2-12.1-18.1V9.2l-4.7,1.9l-0.9-3.7
		c-2.5,0.8-4.6,2.5-6.2,4.2c-8.8,2-15.3,9.8-15.3,19.1c0,1.9-0.5,3.7-1.5,5.4c-1.4,2.5-2.2,5.3-2.2,8.2c0,10.6,10.5,19.2,23.4,19.2
		s23.4-8.6,23.4-19.2C57.9,41.4,57.1,38.6,55.6,36.1z"/>
	<path class="st1" d="M21.4,47.6c0-3.4,0.8-6.7,2.2-9.6c0.9-1.9,1.5-4,1.5-6.2c0-9.5,5-17.6,12.1-21.1l-0.8-3.3
		c-2.5,0.8-4.6,2.5-6.2,4.2c-8.8,2-15.3,9.8-15.3,19.1c0,1.9-0.5,3.7-1.5,5.4c-1.4,2.5-2.2,5.3-2.2,8.2c0,8.5,6.8,15.8,16.2,18.2
		C23.7,58.6,21.4,53.4,21.4,47.6z"/>
	<path class="st4" d="M34.5,59.7c7.7,0,14-5,14-11.2c0-1.3-0.3-2.5-0.8-3.7c-0.7-1.7-0.5-3.6,0.7-5c1.5-1.8,2.3-4.2,1.8-6.7
		c-0.6-3.5-3.4-6.4-7-6.9c-2.7-0.4-5.2,0.4-7,2.1c-0.5,0.5-1.2,0.7-1.8,0.7c-0.7,0-1.3-0.2-1.8-0.7c-1.8-1.6-4.3-2.5-7-2.1
		c-3.5,0.6-6.4,3.4-7,6.9c-0.4,2.6,0.4,5,1.8,6.7c1.2,1.4,1.4,3.3,0.7,5c-0.5,1.1-0.8,2.4-0.8,3.7C20.5,54.7,26.8,59.7,34.5,59.7z"
		/>
	<path class="st5" d="M20.5,48.5c0,2.1,0.7,4.1,2,5.7c-0.7-2.1-1-4.3-1-6.6c0-3.4,0.8-6.7,2.2-9.6c0.9-1.9,1.5-4,1.5-6.2
		c0-2,0.2-3.9,0.6-5.7c0,0-0.1,0-0.1,0c-3.5,0.6-6.4,3.4-7,6.9c-0.4,2.6,0.4,5,1.8,6.7c1.2,1.4,1.4,3.3,0.7,5
		C20.8,46,20.5,47.2,20.5,48.5z"/>
	<g>
		<path class="st6" d="M32.7,43.8c-0.1,0-0.3,0-0.4-0.1l-1.9-0.9c-0.5-0.2-0.6-0.8-0.4-1.3c0.2-0.5,0.8-0.6,1.3-0.4l1.9,0.9
			c0.5,0.2,0.6,0.8,0.4,1.3C33.3,43.6,33,43.8,32.7,43.8z"/>
		<path class="st6" d="M36.4,43.8c-0.3,0-0.7-0.2-0.8-0.5c-0.2-0.5,0-1,0.4-1.3l1.9-0.9c0.5-0.2,1,0,1.3,0.4c0.2,0.5,0,1-0.4,1.3
			l-1.9,0.9C36.7,43.8,36.5,43.8,36.4,43.8z"/>
	</g>
	<path class="st7" d="M26.2,47.6c-0.6,0-1,0.5-0.9,1.1c0.6,4.1,4.5,7.3,9.3,7.3c4.8,0,8.7-3.2,9.3-7.3c0.1-0.6-0.4-1.1-0.9-1.1H26.2
		z"/>
	<path class="st8" d="M29.1,54.4c1.5,1,3.4,1.5,5.4,1.5c2,0,3.9-0.6,5.4-1.5c-0.7-2.3-2.8-4.1-5.4-4.1C32,50.4,29.8,52.1,29.1,54.4z
		"/>
	<path class="st7" d="M26.1,37.3L26.1,37.3c-1.5,0-2.8-1.3-2.8-2.8v-0.9c0-1.5,1.3-2.8,2.8-2.8l0,0c1.5,0,2.8,1.3,2.8,2.8v0.9
		C28.9,36,27.7,37.3,26.1,37.3z"/>
	<path class="st6" d="M26.1,30.7V34c0,0.8,0.6,1.4,1.4,1.4c0.8,0,1.4-0.6,1.4-1.4v-0.5C28.9,32,27.7,30.7,26.1,30.7z"/>
	<circle class="st0" cx="26.1" cy="32.6" r="0.9"/>
	<path class="st7" d="M42.9,37.3L42.9,37.3c-1.5,0-2.8-1.3-2.8-2.8v-0.9c0-1.5,1.3-2.8,2.8-2.8l0,0c1.5,0,2.8,1.3,2.8,2.8v0.9
		C45.7,36,44.5,37.3,42.9,37.3z"/>
	<path class="st6" d="M42.9,30.7V34c0,0.8,0.6,1.4,1.4,1.4s1.4-0.6,1.4-1.4v-0.5C45.7,32,44.5,30.7,42.9,30.7z"/>
	<circle class="st0" cx="42.9" cy="32.6" r="0.9"/>
	<path class="st9" d="M34.5,56c0.3,0,0.6,0,0.9,0v-1.8c0-0.5-0.4-0.9-0.9-0.9c-0.5,0-0.9,0.4-0.9,0.9v1.8C33.9,55.9,34.2,56,34.5,56
		z"/>
	<g>
	</g>
	<g>
	</g>
	<g>
	</g>
	<g>
	</g>
	<g>
	</g>
	<g>
	</g>
	<g>
	</g>
	<g>
	</g>
	<g>
	</g>
	<g>
	</g>
	<g>
	</g>
	<g>
	</g>
	<g>
	</g>
	<g>
	</g>
	<g>
	</g>
</g>
</svg>
