<?xml version="1.0" encoding="utf-8"?>
<!-- Generator: Adobe Illustrator 24.1.2, SVG Export Plug-In . SVG Version: 6.00 Build 0)  -->
<svg version="1.1" id="Komponente_12_1" xmlns="http://www.w3.org/2000/svg" xmlns:xlink="http://www.w3.org/1999/xlink" x="0px"
	 y="0px" viewBox="0 0 70 70" style="enable-background:new 0 0 70 70;" xml:space="preserve">
<style type="text/css">
	.st0{fill:#FFFFFF;}
	.st1{fill:#4B3F4E;}
	.st2{fill:#6F6571;}
	.st3{fill:#EDEBED;}
	.st4{fill:#DBD9DC;}
	.st5{fill:#5D5360;}
</style>
<rect class="st0" width="70.4" height="70.4"/>
<rect x="0.2" y="0.2" class="st0" width="70" height="70"/>
<g>
	<circle class="st1" cx="52.9" cy="18" r="9.8"/>
	<circle class="st2" cx="52.9" cy="18" r="6.2"/>
	<circle class="st1" cx="17.3" cy="18" r="9.8"/>
	<circle class="st2" cx="17.3" cy="18" r="6.2"/>
	<ellipse class="st3" cx="35.1" cy="38.5" rx="25.8" ry="24.9"/>
	<ellipse transform="matrix(0.866 -0.5 0.5 0.866 -13.1914 28.9543)" class="st1" cx="47.4" cy="39.1" rx="7.6" ry="8.9"/>
	<path class="st4" d="M17.3,37.6c0-9.9,4.9-18.6,12.2-23.4C17.9,16.7,9.2,26.6,9.2,38.5c0,13.4,10.9,24.3,24.6,24.9
		C24.2,59.4,17.3,49.4,17.3,37.6z"/>
	<path class="st5" d="M45.7,41.2L45.7,41.2c-1.5,0-2.7-1.2-2.7-2.7v-0.9c0-1.5,1.2-2.7,2.7-2.7l0,0c1.5,0,2.7,1.2,2.7,2.7v0.9
		C48.4,40,47.2,41.2,45.7,41.2z"/>
	<path class="st2" d="M45.7,35v3.1c0,0.7,0.6,1.3,1.3,1.3c0.7,0,1.3-0.6,1.3-1.3v-0.4C48.4,36.2,47.2,35,45.7,35z"/>
	<g>
		<circle class="st0" cx="45.7" cy="36.7" r="0.9"/>
		<path class="st0" d="M44,51.9c0-2-2.4-3.6-5.4-3.6c-1.3,0-2.5,0.3-3.5,0.8c-0.9-0.5-2.1-0.8-3.5-0.8c-3,0-5.4,1.6-5.4,3.6
			c0,1.2,0.9,2.2,2.2,2.9c0.1,2.9,3.1,5.1,6.7,5.1c3.6,0,6.5-2.3,6.7-5.1C43.1,54.1,44,53.1,44,51.9z"/>
	</g>
	<path class="st5" d="M39.5,48.3c0,1.5-2,3.6-4.5,3.6s-4.5-2.1-4.5-3.6c0-1.5,2-2.7,4.5-2.7S39.5,46.8,39.5,48.3z"/>
	<path class="st2" d="M43.9,51.7c-0.1-0.5-0.6-0.8-1-0.7c-0.5,0.1-0.8,0.5-0.7,1c0,0,0.1,0.7-0.4,1.2c-0.4,0.4-1.7,1.1-5,0.7
		c-0.3,0-0.6-0.1-0.9-0.1v-2.2c0-0.5-0.4-0.6-0.9-0.6c-0.5,0-0.9,0.1-0.9,0.6v2.2c-0.3,0-0.6,0-0.9,0.1c-3.3,0.4-4.5-0.3-5-0.7
		c-0.5-0.5-0.4-1.2-0.4-1.2c0.1-0.5-0.2-1-0.7-1c-0.5-0.1-1,0.2-1,0.7c-0.1,0.6-0.1,1.8,0.8,2.7c0.9,1,2.4,1.4,4.4,1.4
		c0.7,0,1.4,0,2.1-0.1c1-0.1,2.1-0.1,3.1,0c3.1,0.4,5.3,0,6.5-1.3C44,53.5,44.1,52.3,43.9,51.7z"/>
	<g>
		<path class="st1" d="M36.8,51c-2.5,0-4.5-2.4-4.5-4.1c0-0.3,0.1-0.6,0.2-0.8c-1.2,0.5-2,1.3-2,2.2c0,1.5,2,3.6,4.5,3.6
			c1.1,0,2.2-0.5,2.9-1.1C37.6,50.9,37.2,51,36.8,51z"/>
		<ellipse transform="matrix(0.5 -0.866 0.866 0.5 -22.5085 39.1952)" class="st1" cx="22.7" cy="39.1" rx="8.9" ry="7.6"/>
	</g>
	<path class="st5" d="M24.4,41.2L24.4,41.2c-1.5,0-2.7-1.2-2.7-2.7v-0.9c0-1.5,1.2-2.7,2.7-2.7l0,0c1.5,0,2.7,1.2,2.7,2.7v0.9
		C27,40,25.9,41.2,24.4,41.2z"/>
	<path class="st2" d="M24.4,35v3.1c0,0.7,0.6,1.3,1.3,1.3s1.3-0.6,1.3-1.3v-0.4C27,36.2,25.9,35,24.4,35z"/>
	<circle class="st0" cx="24.4" cy="36.7" r="0.9"/>
	<g>
	</g>
	<g>
	</g>
	<g>
	</g>
	<g>
	</g>
	<g>
	</g>
	<g>
	</g>
	<g>
	</g>
	<g>
	</g>
	<g>
	</g>
	<g>
	</g>
	<g>
	</g>
	<g>
	</g>
	<g>
	</g>
	<g>
	</g>
	<g>
	</g>
</g>
</svg>
