<?xml version="1.0" encoding="utf-8"?>
<!-- Generator: Adobe Illustrator 24.1.2, SVG Export Plug-In . SVG Version: 6.00 Build 0)  -->
<svg version="1.1" id="Komponente_12_1" xmlns="http://www.w3.org/2000/svg" xmlns:xlink="http://www.w3.org/1999/xlink" x="0px"
	 y="0px" viewBox="0 0 70 70" style="enable-background:new 0 0 70 70;" xml:space="preserve">
<style type="text/css">
	.st0{fill:#FFFFFF;}
	.st1{fill:#C0BCC1;}
	.st2{fill:#AEA8AF;}
	.st3{fill:#C9C6CA;}
	.st4{fill:#F5DCB4;}
	.st5{fill:#9C969E;}
	.st6{fill:#4B3F4E;}
	.st7{fill:#5D5360;}
	.st8{fill:#EBC9A0;}
</style>
<rect class="st0" width="70.4" height="70.4"/>
<rect x="0.2" y="0.2" class="st0" width="70" height="70"/>
<g>
	<ellipse transform="matrix(0.4095 -0.9123 0.9123 0.4095 11.9453 59.4119)" class="st1" cx="51.9" cy="20.5" rx="12.6" ry="10.3"/>
	<ellipse transform="matrix(0.4095 -0.9123 0.9123 0.4095 12.1285 60.7345)" class="st2" cx="53" cy="21" rx="9.9" ry="7.3"/>
	<ellipse transform="matrix(0.9123 -0.4095 0.4095 0.9123 -6.8043 9.183)" class="st1" cx="18" cy="20.5" rx="10.3" ry="12.6"/>
	<ellipse transform="matrix(0.9123 -0.4095 0.4095 0.9123 -7.1151 8.7729)" class="st2" cx="16.9" cy="21" rx="7.3" ry="9.9"/>
	<path class="st3" d="M57.2,44.5c0-13.7-10.7-27.4-22.3-27.4S12.7,30.8,12.7,44.5c0,7.4,6.1,14.3,15.8,16.4c1.7,1.5,4,2.5,6.5,2.5
		c2.5,0,4.8-0.9,6.5-2.5C51.1,58.8,57.2,52,57.2,44.5z"/>
	<g>
		<path class="st1" d="M19.8,45c0-11,4.8-22.1,11.2-27.4c-10,2.6-18.4,14.7-18.4,26.9c0,7.3,6,14.1,15.4,16.3
			C22.9,57.4,19.8,51.4,19.8,45z"/>
		<path class="st1" d="M38.5,60.2h-7.1l-3.6-1c0,0.8,0.3,1.5,0.9,2c1.7,1.4,3.8,2.2,6.2,2.2c2.4,0,4.5-0.8,6.2-2.2
			c0.6-0.5,0.9-1.2,0.9-2L38.5,60.2z"/>
	</g>
	<path class="st4" d="M35,50.1c2.5,0,4.5,1.6,4.5,3.6c0,1.9-1.9,2.9-3.2,3.6c-0.8,0.4-1.7,0.4-2.5,0c-1.4-0.7-3.2-1.7-3.2-3.6
		C30.5,51.7,32.5,50.1,35,50.1z"/>
	<path class="st2" d="M38.1,61.7c-0.9,0-1.8-0.3-2.6-0.8c-0.3-0.2-0.7-0.2-1,0c-0.8,0.5-1.7,0.8-2.6,0.8c-1.6,0-3.1-0.8-4.1-2.2
		c-0.3-0.4-0.2-1,0.2-1.2c0.4-0.3,1-0.2,1.2,0.2c0.6,0.9,1.5,1.4,2.6,1.4c0.6,0,1.2-0.2,1.7-0.5c0.9-0.6,2-0.6,2.9,0
		c0.5,0.3,1.1,0.5,1.7,0.5c1,0,2-0.5,2.6-1.4c0.3-0.4,0.8-0.5,1.2-0.2c0.4,0.3,0.5,0.8,0.2,1.2C41.2,60.8,39.7,61.7,38.1,61.7z"/>
	<g>
		<path class="st5" d="M59,59.9c-0.1,0-0.2,0-0.4-0.1c-6.3-2.8-14.8-4.4-14.9-4.4c-0.5-0.1-0.8-0.6-0.7-1c0.1-0.5,0.5-0.8,1-0.7
			c0.4,0.1,8.8,1.6,15.3,4.5c0.4,0.2,0.7,0.7,0.5,1.2C59.7,59.7,59.3,59.9,59,59.9z"/>
		<path class="st5" d="M62.5,53.6c-0.1,0-0.1,0-0.2,0c-5.9-1.3-16.6-0.9-16.7-0.9c-0.5,0-0.9-0.4-0.9-0.8c0-0.5,0.4-0.9,0.8-0.9
			c0.4,0,11.1-0.5,17.2,0.9c0.5,0.1,0.8,0.6,0.7,1.1C63.3,53.4,63,53.6,62.5,53.6z"/>
		<path class="st5" d="M10.9,59.9c-0.3,0-0.7-0.2-0.8-0.5c-0.2-0.4,0-1,0.5-1.2c6.5-2.9,15-4.4,15.3-4.5c0.5-0.1,0.9,0.2,1,0.7
			c0.1,0.5-0.2,0.9-0.7,1c-0.1,0-8.6,1.6-14.9,4.4C11.2,59.9,11,59.9,10.9,59.9z"/>
		<path class="st5" d="M7.4,53.6c-0.4,0-0.8-0.3-0.9-0.7c-0.1-0.5,0.2-1,0.7-1.1c6.1-1.4,16.7-0.9,17.2-0.9c0.5,0,0.9,0.4,0.8,0.9
			c0,0.5-0.4,0.9-0.9,0.8c-0.1,0-10.8-0.5-16.7,0.9C7.5,53.6,7.4,53.6,7.4,53.6z"/>
	</g>
	<path class="st6" d="M25.6,46.5L25.6,46.5c-1.7,0-3.1-1.4-3.1-3.1v-1.8c0-1.7,1.4-3.1,3.1-3.1l0,0c1.7,0,3.1,1.4,3.1,3.1v1.8
		C28.7,45.1,27.3,46.5,25.6,46.5z"/>
	<path class="st7" d="M25.6,38.5c-0.2,0-0.3,0-0.4,0V43c0,1,0.8,1.8,1.8,1.8c1,0,1.8-0.8,1.8-1.8v-1.3
		C28.7,39.9,27.3,38.5,25.6,38.5z"/>
	<circle class="st0" cx="25.6" cy="40.7" r="1.3"/>
	<path class="st6" d="M44.3,46.5L44.3,46.5c-1.7,0-3.1-1.4-3.1-3.1v-1.8c0-1.7,1.4-3.1,3.1-3.1l0,0c1.7,0,3.1,1.4,3.1,3.1v1.8
		C47.4,45.1,46,46.5,44.3,46.5z"/>
	<path class="st7" d="M44.3,38.5c-0.2,0-0.3,0-0.4,0V43c0,1,0.8,1.8,1.8,1.8c1,0,1.8-0.8,1.8-1.8v-1.3C47.4,39.9,46,38.5,44.3,38.5z
		"/>
	<circle class="st0" cx="44.3" cy="40.7" r="1.3"/>
	<path class="st8" d="M33.2,52.7c0-0.9,0.3-1.8,0.8-2.5c-2,0.4-3.5,1.8-3.5,3.5c0,1.9,1.9,2.9,3.2,3.6c0.8,0.4,1.7,0.4,2.5,0
		c0.1,0,0.1-0.1,0.2-0.1C35,56.3,33.2,55,33.2,52.7z"/>
	<g>
	</g>
	<g>
	</g>
	<g>
	</g>
	<g>
	</g>
	<g>
	</g>
	<g>
	</g>
	<g>
	</g>
	<g>
	</g>
	<g>
	</g>
	<g>
	</g>
	<g>
	</g>
	<g>
	</g>
	<g>
	</g>
	<g>
	</g>
	<g>
	</g>
</g>
</svg>
