<?xml version="1.0" encoding="utf-8"?>
<!-- Generator: Adobe Illustrator 24.1.2, SVG Export Plug-In . SVG Version: 6.00 Build 0)  -->
<svg version="1.1" id="Komponente_12_1" xmlns="http://www.w3.org/2000/svg" xmlns:xlink="http://www.w3.org/1999/xlink" x="0px"
	 y="0px" viewBox="0 0 70 70" style="enable-background:new 0 0 70 70;" xml:space="preserve">
<style type="text/css">
	.st0{fill:#FFFFFF;}
	.st1{fill:#D26437;}
	.st2{fill:#B44632;}
	.st3{fill:#EBAF4B;}
	.st4{fill:#E18C46;}
	.st5{fill:#FFC850;}
	.st6{fill:#FAEBC8;}
	.st7{fill:#F5DCB4;}
	.st8{fill:#D4AF91;}
	.st9{fill:#5D5360;}
	.st10{fill:#FFDC64;}
	.st11{fill:#4B3F4E;}
</style>
<rect class="st0" width="70.4" height="70.4"/>
<rect x="0.2" y="0.2" class="st0" width="70" height="70"/>
<g>
	<path class="st1" d="M35.1,8.8c0.3,0,0.6-0.1,0.9-0.3c0.9-0.5,2.4-1.2,4.6-1.2c4.2,0,7.4,1.8,7.4,1.8l-1.8,1.8c2,0.5,3.1,0.8,5.3,2
		c7.6,4,11.3,12.7,11.3,12.7H59c4.6,7.4,4.6,17.5,4.6,17.5l-2.8-0.9c0,0,0,8.3-3.7,13.8l-2.8-1.8c0,0-2.8,4.6-7.4,7.4l-1.8-1.8
		c0,0-4.6,3.7-10.1,4.6C29.6,63.5,25,59.8,25,59.8l-1.8,1.8c-4.6-2.8-7.4-7.4-7.4-7.4L13,56.2c-3.7-5.5-3.7-13.8-3.7-13.8l-2.8,0.9
		c0,0,0-10.1,4.6-17.5H7.5c0,0,3.6-8.7,11.3-12.7c2.2-1.1,3.3-1.5,5.3-2l-1.8-1.8c0,0,3.2-1.8,7.4-1.8c2.2,0,3.7,0.6,4.6,1.2
		C34.4,8.7,34.8,8.8,35.1,8.8"/>
	<path class="st2" d="M27.4,17.6c0,0,2.7-5.4,7.1-8.8c-0.1,0-0.3-0.1-0.4-0.2c-0.9-0.5-2.4-1.2-4.6-1.2c-4.2,0-7.4,1.8-7.4,1.8
		l1.8,1.8c-2,0.5-3.1,0.8-5.3,2c-7.6,4-11.3,12.7-11.3,12.7h3.7c-4.6,7.4-4.6,17.5-4.6,17.5l2.8-0.9c0,0,0,8.3,3.7,13.8l2.8-1.8
		c0,0,2.8,4.6,7.4,7.4l1.8-1.8c0,0,4.6,3.7,10.1,4.6C35.1,64.4,28.4,61.7,27.4,17.6z"/>
	<path class="st3" d="M52.3,13c2.2-0.4,4.2,1.3,4,3.6c-0.3,2.7-2.3,7.6-5,10.4L42.3,18C45.7,15.3,49.9,13.4,52.3,13z"/>
	<path class="st4" d="M44.7,20.5c2.8-2.2,7-5,8.2-5.1c1.3-0.1,2.2,1.7,1.6,3.7c-0.5,1.7-2.2,4.9-3.9,7.4L44.7,20.5z"/>
	<path class="st3" d="M17.9,13c-2.2-0.4-4.2,1.3-4,3.6c0.3,2.7,2.3,7.6,5,10.4l8.9-8.9C24.4,15.3,20.2,13.4,17.9,13z"/>
	<path class="st4" d="M25.4,20.5c-2.8-2.2-7-5-8.2-5.1c-1.3-0.1-2.2,1.7-1.6,3.7c0.5,1.7,2.2,4.9,3.9,7.4L25.4,20.5z"/>
	<path class="st5" d="M46.1,18.4c-3.6-2.8-11,1.8-11,1.8s-7.4-4.7-11-1.8c-8.3,6.4-10.1,24.8-9.2,28.5c0.7,2.7,6.4,7.4,12.9,9.2
		h14.7c6.4-1.8,12.2-6.5,12.9-9.2C56.2,43.3,54.4,24.9,46.1,18.4z"/>
	<path class="st3" d="M20.5,52.4c-0.7-4.4,1-24,6.9-34.8c-1.2-0.1-2.4,0.2-3.4,0.9c-8.3,6.4-10.1,24.8-9.2,28.5
		c0.4,1.6,2.7,3.9,5.8,6C20.6,52.7,20.5,52.6,20.5,52.4z"/>
	<path class="st6" d="M55.3,42.4c-0.7,2.7-6.4,7.4-12.9,9.2H27.7c-6.4-1.8-12.2-6.5-12.9-9.2c0-0.2-0.1-0.4-0.1-0.6
		c-0.2,2.4-0.1,4.3,0.1,5.2c0.7,2.7,6.4,7.4,12.9,9.2h14.7c6.4-1.8,12.2-6.5,12.9-9.2c0.2-0.9,0.3-2.8,0.1-5.2
		C55.4,42,55.4,42.2,55.3,42.4z"/>
	<path class="st7" d="M27.4,54.7c0.5,2.9,3,5.2,6.1,5.2h3.1c3.1,0,5.6-2.2,6.1-5.1l-7.6-1.3L27.4,54.7z"/>
	<path class="st6" d="M40.1,46c-2.1,0-4,0.9-5.1,2.2C34,46.9,32.2,46,30,46c-3.3,0-6,2.1-6,4.6s2.7,4.6,6,4.6c2.1,0,4-0.9,5.1-2.2
		c1.1,1.3,2.9,2.2,5.1,2.2c3.3,0,6-2.1,6-4.6S43.4,46,40.1,46z"/>
	<path class="st8" d="M39.8,56.1c-1.6,0-3.1-0.5-4.4-1.5c-0.2-0.1-0.4-0.1-0.6,0c-1.3,1-2.8,1.5-4.4,1.5c-3.9,0-7-3.2-7-7.1
		c0-0.5,0.4-0.9,0.9-0.9c0.5,0,0.9,0.4,0.9,0.9c0,2.9,2.3,5.3,5.2,5.3c1.2,0,2.3-0.4,3.2-1.1c0.9-0.7,2.1-0.7,2.9,0
		c0.9,0.7,2,1.1,3.2,1.1c2.9,0,5.2-2.4,5.2-5.3c0-0.5,0.4-0.9,0.9-0.9s0.9,0.4,0.9,0.9C46.8,52.9,43.6,56.1,39.8,56.1z"/>
	<path class="st9" d="M30.1,47.6l2,1.6c1.7,1.5,4.3,1.5,6,0l2-1.6c0.9-0.7,0.4-2.1-0.8-2.1c-2.5,0-5.9,0-8.4,0
		C29.8,45.5,29.2,46.9,30.1,47.6z"/>
	<path class="st10" d="M35.1,31.3c-0.5,0-0.9-0.4-0.9-0.9v-7.5c0-0.5,0.4-0.9,0.9-0.9s0.9,0.4,0.9,0.9v7.5
		C36,30.9,35.6,31.3,35.1,31.3z"/>
	<path class="st11" d="M25.9,40.5L25.9,40.5c-1.5,0-2.8-1.2-2.8-2.8v-0.9c0-1.5,1.2-2.8,2.8-2.8l0,0c1.5,0,2.8,1.2,2.8,2.8v0.9
		C28.6,39.3,27.4,40.5,25.9,40.5z"/>
	<path class="st9" d="M25.9,34.1v3.2c0,0.8,0.6,1.4,1.4,1.4c0.8,0,1.4-0.6,1.4-1.4v-0.5C28.6,35.3,27.4,34.1,25.9,34.1z"/>
	<circle class="st0" cx="25.9" cy="35.9" r="0.9"/>
	<path class="st11" d="M44.3,40.5L44.3,40.5c-1.5,0-2.8-1.2-2.8-2.8v-0.9c0-1.5,1.2-2.8,2.8-2.8l0,0c1.5,0,2.8,1.2,2.8,2.8v0.9
		C47,39.3,45.8,40.5,44.3,40.5z"/>
	<path class="st9" d="M44.3,34.1v3.2c0,0.8,0.6,1.4,1.4,1.4s1.4-0.6,1.4-1.4v-0.5C47,35.3,45.8,34.1,44.3,34.1z"/>
	<circle class="st0" cx="44.3" cy="35.9" r="0.9"/>
	<path class="st11" d="M35.6,49.1l-2-2.2c-0.3-0.4-0.5-0.9-0.4-1.4c-0.8,0-1.6,0-2.4,0c-1.1,0-1.6,1.4-0.8,2.1l2,1.6
		c1.3,1.1,3.1,1.4,4.7,0.8C36.3,49.8,36,49.5,35.6,49.1z"/>
	<path class="st7" d="M14.8,42.4c0-0.2-0.1-0.4-0.1-0.6c-0.2,2.4-0.1,4.3,0.1,5.2c0.4,1.6,2.7,3.9,5.8,6c0-0.2-0.1-0.4-0.1-0.5
		c-0.1-0.9-0.2-2.4-0.1-4.2C17.4,46.2,15.2,43.9,14.8,42.4z"/>
	<g>
	</g>
	<g>
	</g>
	<g>
	</g>
	<g>
	</g>
	<g>
	</g>
	<g>
	</g>
	<g>
	</g>
	<g>
	</g>
	<g>
	</g>
	<g>
	</g>
	<g>
	</g>
	<g>
	</g>
	<g>
	</g>
	<g>
	</g>
	<g>
	</g>
</g>
</svg>
