<svg xmlns="http://www.w3.org/2000/svg" width="60.048" height="60.048" viewBox="0 0 60.048 60.048">
  <g id="Gruppe_49" data-name="Gruppe 49" transform="translate(266.195 -609.691)">
    <g id="_013---Baking" data-name="013---Baking" transform="translate(-266.198 609.475)">
      <path id="Shape" d="M43.7,49.514c2.925,1.538,4.673,5.7,6.4,8.423A4.955,4.955,0,1,0,57.8,51.789a5.059,5.059,0,0,0-.859-.686c-2.723-1.726-6.884-3.473-8.423-6.4L15.546,11.735c-2.925-1.542-4.673-5.7-6.4-8.423a5.059,5.059,0,0,0-.686-.859,4.955,4.955,0,1,0-6.148,7.693c2.723,1.726,6.884,3.473,8.423,6.4Z" transform="translate(0 0.017)" fill="#cbb292"/>
      <path id="Shape-2" data-name="Shape" d="M50.4,39.834c.787.8-1.144,4.035-4.342,7.222S39.63,52.184,38.834,51.4L27.076,39.64l-6.824-6.824L8.494,21.058c-.572-.582.306-2.472,2.064-4.689a32.139,32.139,0,0,1,4.811-4.811c2.217-1.757,4.107-2.636,4.689-2.064l8.561,8.561Z" transform="translate(0.179 0.196)" fill="#a56a43"/>
      <g id="Gruppe_41" data-name="Gruppe 41" transform="translate(23.084 0.216)">
        <path id="Shape-3" data-name="Shape" d="M28.092,36.542a1.022,1.022,0,0,1-.338-1.985l10.931-3.835a.887.887,0,0,1,.129-.058l2.227-.776.057-.019a1.022,1.022,0,0,1,.788,1.882,1.382,1.382,0,0,1-.164.063h-.008l-2.15.75a.954.954,0,0,1-.126.056L28.429,36.484A1,1,0,0,1,28.092,36.542Z" transform="translate(-22.501 0.422)" fill="#a5a5a4"/>
        <path id="Shape-4" data-name="Shape" d="M27.881,35.688a1.022,1.022,0,0,1-.946-.636,3.952,3.952,0,0,0-.324-.643q-.028-.045-.052-.092a.733.733,0,0,0-.116-.167,1.068,1.068,0,0,1-.08-.1,2.621,2.621,0,0,0-.221-.269.919.919,0,0,1-.1-.091,2.4,2.4,0,0,0-.329-.291,1.413,1.413,0,0,0-.253-.18q-.048-.025-.092-.052a3.178,3.178,0,0,0-.613-.306,3.482,3.482,0,0,0-1.179-.254,1.022,1.022,0,0,1-.919-1.36l4.667-13.28v-.01c.006-.019.013-.039.02-.058a45.136,45.136,0,0,1,3.408-7.535,29.829,29.829,0,0,1,4.329-5.9A14.376,14.376,0,0,1,45.253.216h.072A14.22,14.22,0,0,1,59.564,14.527a14.38,14.38,0,0,1-4.257,10.167,29.625,29.625,0,0,1-5.9,4.328,43.76,43.76,0,0,1-7.538,3.41,1.022,1.022,0,0,1-.68-1.927,41.706,41.706,0,0,0,7.191-3.25,27.526,27.526,0,0,0,5.481-4,12.361,12.361,0,0,0,3.66-8.735,12.177,12.177,0,0,0-12.2-12.259h-.061A12.351,12.351,0,0,0,36.532,5.92,27.819,27.819,0,0,0,32.524,11.4a43.084,43.084,0,0,0-3.251,7.186c-.006.018-.012.038-.019.056L24.988,30.786c.173.05.342.109.511.176a5.168,5.168,0,0,1,.931.458,3.144,3.144,0,0,1,.561.383,4.041,4.041,0,0,1,.457.4.8.8,0,0,1,.076.068,4.622,4.622,0,0,1,.475.553,2.817,2.817,0,0,1,.3.415l7.637-4.5c.03-.021.062-.044.082-.055l1.89-1.113.1-.06a1.022,1.022,0,0,1,.932,1.818l-1.846,1.09-.083.056L28.4,35.545a1.022,1.022,0,0,1-.519.143Z" transform="translate(-22.597 -0.216)" fill="#a5a5a4"/>
        <path id="Shape-5" data-name="Shape" d="M26.732,33.932a1.022,1.022,0,0,1-.725-1.744L53.885,4.3A1.022,1.022,0,1,1,55.33,5.744L27.452,33.632a1.015,1.015,0,0,1-.72.3Z" transform="translate(-22.53 -0.135)" fill="#a5a5a4"/>
      </g>
      <path id="Shape-6" data-name="Shape" d="M27.85,35.633A1.022,1.022,0,0,1,26.9,35a3.938,3.938,0,0,0-.323-.642,1.042,1.042,0,0,1-.053-.093.733.733,0,0,0-.116-.167,1.07,1.07,0,0,1-.08-.1,2.621,2.621,0,0,0-.221-.269.918.918,0,0,1-.1-.091,2.4,2.4,0,0,0-.329-.291,1.414,1.414,0,0,0-.253-.18,1.04,1.04,0,0,1-.093-.053,3.167,3.167,0,0,0-.613-.3,1.022,1.022,0,0,1-.526-1.477L30.416,20.78A69.491,69.491,0,0,1,34.77,14.2a52.9,52.9,0,0,1,4.609-5.451C45.1,3.027,52.126,1.086,55.36,4.324c1.634,1.634,2.009,4.253,1.058,7.377a21.548,21.548,0,0,1-5.482,8.6,51.774,51.774,0,0,1-5.454,4.612,69.188,69.188,0,0,1-6.528,4.32l-.1.06-1.8,1.061-.081.053-8.612,5.077a1.022,1.022,0,0,1-.514.144Zm.114-2.866a2.817,2.817,0,0,1,.3.415l7.639-4.5c.03-.021.061-.043.08-.053l1.89-1.113.1-.06a67.54,67.54,0,0,0,6.288-4.167A49.952,49.952,0,0,0,49.5,18.863a19.48,19.48,0,0,0,4.972-7.755c.715-2.367.525-4.262-.549-5.337-2.34-2.344-8.339-.315-13.09,4.423a50.827,50.827,0,0,0-4.42,5.231,67.452,67.452,0,0,0-4.2,6.343l-5.7,9.663a3.33,3.33,0,0,1,.44.316,4.042,4.042,0,0,1,.457.4.8.8,0,0,1,.076.068,4.623,4.623,0,0,1,.475.553Z" transform="translate(0.518 0.055)" fill="#d1d4d1"/>
      <path id="Shape-7" data-name="Shape" d="M28.175,38.251c0,.01,0,.01-.01.02l-3.2,3.2c-.031.031-.061.072-.092.1L12.494,53.942l-3.3,3.3A4.827,4.827,0,0,1,.92,53.85a4.913,4.913,0,0,1,1.44-3.443l3.3-3.3L18.041,34.737l3.289-3.3c.01-.01.01-.01.02-.01a4.844,4.844,0,0,1,6.844-.02h.01a4.842,4.842,0,0,1-.031,6.844Z" transform="translate(0.02 0.642)" fill="#2980ba"/>
      <path id="Shape-8" data-name="Shape" d="M24.884,41.386c-.031.031-.061.072-.092.1L12.411,53.859c-1.348,1.348-3.964.909-5.853-.981a5.972,5.972,0,0,1-1.706-3.126,3.056,3.056,0,0,1,.725-2.728L17.958,34.654c1.474-1.487,4.166-.7,5.843.981a5.958,5.958,0,0,1,1.706,3.126,3.131,3.131,0,0,1-.623,2.625Z" transform="translate(0.103 0.725)" fill="#2fa8cc"/>
    </g>
  </g>
</svg>
