<svg id="Komponente_13_1" data-name="Komponente 13 1" xmlns="http://www.w3.org/2000/svg" viewBox="0 0 76.45 71.64"><defs><style>.cls-1{fill:#acabb1;}.cls-2{fill:#c6c5ca;}.cls-3{fill:#e0e0e2;}.cls-4{fill:#78b9eb;}.cls-5{fill:#96c8ef;}.cls-6{fill:#1e81ce;}.cls-7{fill:#d7f6f8;}.cls-8{fill:#79d5de;}.cls-9{fill:#3d6c6f;}.cls-10{fill:#f1f1f2;}.cls-11{fill:#dcdbde;}</style></defs><g id="scissors"><path id="Pfad_56" data-name="Pfad 56" class="cls-1" d="M35.1,44.44l-8.72,2.35-9.7-35.91A9,9,0,0,1,20.81.74L21.2.52a1.64,1.64,0,0,1,2.35,1l.23.82,10.14,37.7Z" transform="translate(0 -0.12)"/><path id="Pfad_57" data-name="Pfad 57" class="cls-2" d="M33.92,40.06,30.61,41,20.91,5a9.07,9.07,0,0,1-.1-4.3L21.2.52a1.64,1.64,0,0,1,2.35,1l.23.82Z" transform="translate(0 -0.12)"/><path id="Pfad_58" data-name="Pfad 58" class="cls-3" d="M39.05,10.88,29.36,46.79,24.19,45.4l-3.55-1L32,2.34l.24-.81a1.64,1.64,0,0,1,2-1.13,1.66,1.66,0,0,1,.31.12,8.82,8.82,0,0,1,1.82,1.26A9,9,0,0,1,39.05,10.88Z" transform="translate(0 -0.12)"/><path id="Pfad_59" data-name="Pfad 59" class="cls-2" d="M39.05,10.87,29.36,46.79,24.19,45.4,35.45,3.51l.23-.82a1.65,1.65,0,0,1,.67-.91A9.05,9.05,0,0,1,39.05,10.87Z" transform="translate(0 -0.12)"/><path id="Pfad_60" data-name="Pfad 60" class="cls-4" d="M55.26,55.66a12.81,12.81,0,0,0-19.18-7.5L32.22,33.84a4.52,4.52,0,0,0-8.73,2.33v0l7.11,26.37h0a12.8,12.8,0,0,0,24.65-6.89ZM50,59.36a7.07,7.07,0,1,1-6.7-7.43A7.08,7.08,0,0,1,50,59.36Z" transform="translate(0 -0.12)"/><path id="Pfad_61" data-name="Pfad 61" class="cls-5" d="M29,30.62a4.51,4.51,0,0,0-5.54,3.18L19.62,48.12a12.8,12.8,0,1,0,4,17.66,12.94,12.94,0,0,0,1.47-3.26h0l7.11-26.37A4.5,4.5,0,0,0,29,30.62h0ZM19.64,60.8a7.07,7.07,0,1,1-5-8.67,7.08,7.08,0,0,1,5,8.67Z" transform="translate(0 -0.12)"/><circle id="Ellipse_13" data-name="Ellipse 13" class="cls-6" cx="27.86" cy="35.71" r="1.55"/></g><g id="crayon"><path id="Pfad_89" data-name="Pfad 89" class="cls-7" d="M63.3,60.19l6.51,10.14a2,2,0,0,0,3.72-.86l1.4-12-1.51-6.58L61.79,53.62Z" transform="translate(0 -0.12)"/><g id="Gruppe_37" data-name="Gruppe 37"><path id="Pfad_90" data-name="Pfad 90" class="cls-8" d="M63.3,60.19l6.51,10.14a2.07,2.07,0,0,0,2.15.85L67.6,52.27l-5.81,1.35Z" transform="translate(0 -0.12)"/><rect id="Rechteck_11" data-name="Rechteck 11" class="cls-8" x="55.06" y="1.06" width="14.98" height="58.68" transform="translate(-5.23 14.72) rotate(-12.99)"/></g><rect id="Rechteck_12" data-name="Rechteck 12" class="cls-9" x="55.16" y="1.9" width="7.49" height="58.68" transform="translate(-5.51 13.92) rotate(-12.99)"/><g id="Gruppe_38" data-name="Gruppe 38"><rect id="Rechteck_13" data-name="Rechteck 13" class="cls-10" x="60.2" y="50.82" width="14.98" height="3.67" transform="translate(-10.1 16.44) rotate(-12.99)"/><rect id="Rechteck_14" data-name="Rechteck 14" class="cls-10" x="49.98" y="6.52" width="14.98" height="3.67" transform="translate(-0.4 13.01) rotate(-12.99)"/></g><g id="Gruppe_39" data-name="Gruppe 39"><rect id="Rechteck_15" data-name="Rechteck 15" class="cls-11" x="60.29" y="51.66" width="7.49" height="3.67" transform="translate(-10.38 15.65) rotate(-12.99)"/><rect id="Rechteck_16" data-name="Rechteck 16" class="cls-11" x="50.07" y="7.36" width="7.49" height="3.67" transform="translate(-0.68 12.21) rotate(-12.99)"/></g></g></svg>