<svg xmlns="http://www.w3.org/2000/svg" width="65.719" height="69.399" viewBox="0 0 65.719 69.399">
  <g id="hammer_1_" data-name="hammer (1)" transform="translate(-13.574)">
    <path id="Pfad_91" data-name="Pfad 91" d="M168.318,193.609l-7.948-.139L162.71,188h0l1.632-1.632h0l6.6-6.6,12.311-12.311.05-.048,1.565,1.564,4.043,4.043-1.561,1.559h0l-4.627,4.625-.718.718-5.457,5.457-3.757,3.757-4.475,4.476Z" transform="translate(-126.899 -144.716)" fill="#92949b"/>
    <path id="Pfad_92" data-name="Pfad 92" d="M28.96,340.287a5.309,5.309,0,0,1,.157-7.393l2.043-2.042,2.708-2.71,12.481-12.48a.892.892,0,0,1,1.26,0l.272.272,2.042,2.042,3.567,3.567.272.272a.889.889,0,0,1,0,1.26l-17.3,17.3A5.249,5.249,0,0,1,28.96,340.287Z" transform="translate(-12.071 -272.651)" fill="#e8b33f"/>
    <path id="Pfad_93" data-name="Pfad 93" d="M177.631,188h0l1.632-1.632h0l6.6-6.6,12.311-12.311.05-.048,1.565,1.564-1.561,1.559h0l-4.627,4.625-.718.718-5.457,5.457-3.757,3.757-4.475,4.476h0Z" transform="translate(-141.82 -144.716)" fill="#66686d"/>
    <path id="Pfad_94" data-name="Pfad 94" d="M409.678,165.443a13.791,13.791,0,0,1,2.264,16.739c-2.275-5.126-7.54-10.909-11.222-13.038l-.179-5.967,6.511-.359,0,0Z" transform="translate(-334.516 -140.749)" fill="#484b54"/>
    <path id="Pfad_95" data-name="Pfad 95" d="M28.96,340.287a5.309,5.309,0,0,1,.157-7.393l2.043-2.042,2.708-2.71,12.481-12.48a.892.892,0,0,1,1.26,0l.272.272h0l2.04,2.042A83.254,83.254,0,0,0,28.96,340.287Z" transform="translate(-12.071 -272.651)" fill="#d39f37"/>
    <path id="Pfad_96" data-name="Pfad 96" d="M289.763,40.644l-2.845,7.889-7.534,2.49h0a3.621,3.621,0,0,0,.318-3.69,4.847,4.847,0,0,0-2.125-2.137,3.645,3.645,0,0,0-3.716.305h0l1.635-7.678,8.743-2.7h0a3.7,3.7,0,0,0-.215,3.908,4.86,4.86,0,0,0,2.043,1.942,3.617,3.617,0,0,0,3.7-.327Z" transform="translate(-225.007 -30.361)" fill="#484b54"/>
    <path id="Pfad_97" data-name="Pfad 97" d="M243.5,15.139l-4.76-4.76L249.12,0l4.76,4.76S243.7,14.948,243.5,15.139Z" transform="translate(-194.648)" fill="#92949b"/>
    <g id="Gruppe_40" data-name="Gruppe 40" transform="translate(44.046 8.346)">
      <path id="Pfad_98" data-name="Pfad 98" d="M245.409,66.461l-1.791,1.791s-.076.082-.117.117l-4.76-4.76,2.032-2.032,4.76,4.76C245.495,66.38,245.409,66.461,245.409,66.461Z" transform="translate(-238.692 -61.577)" fill="#66686d"/>
      <path id="Pfad_99" data-name="Pfad 99" d="M323.668,174.573l-5.607-5.607h0l1.511-1.511.049-.048,5.608,5.607Z" transform="translate(-307.26 -153.062)" fill="#66686d"/>
      <path id="Pfad_100" data-name="Pfad 100" d="M243.99,246.539l-5.607-5.608,2.768-2.768,5.608,5.607Z" transform="translate(-238.383 -214.227)" fill="#66686d"/>
    </g>
    <path id="Pfad_101" data-name="Pfad 101" d="M334.771,85.651l-2,2-4.33,4.324-2,2-2.047,2.047-2.144-2.144h0l-5.608-5.608h0l-2.029-2.029c.186-.192,10.188-10.192,10.378-10.378Z" transform="translate(-260.23 -65.582)" fill="#92949b"/>
    <path id="Pfad_102" data-name="Pfad 102" d="M273.561,307.508l2.94,2.94-5.886,5.886-2.94-2.94,1.238-1.238,3.41-3.41Z" transform="translate(-219.659 -265.827)" fill="#484b54"/>
    <path id="Pfad_103" data-name="Pfad 103" d="M308.55,342.98a5.4,5.4,0,0,1-9.222,3.819l-10.683-10.682a2.542,2.542,0,0,0-3.594-3.6l-2.155-2.155.877-.877,2.548-2.547,3.338-3.34.877-.877,2.155,2.155a2.542,2.542,0,0,0,3.6,3.594l10.682,10.683A5.388,5.388,0,0,1,308.55,342.98Z" transform="translate(-232.817 -278.983)" fill="#ea3d3d"/>
    <path id="Pfad_104" data-name="Pfad 104" d="M17.213,53.407l7.258,3.619.635,4.5L52.664,89.087l-3.41,3.41L21.7,64.938l-4.5-.635-3.619-7.258Z" transform="translate(0 -46.168)" fill="#b5b6ba"/>
    <path id="Pfad_105" data-name="Pfad 105" d="M306.968,373.692a5.4,5.4,0,0,1-7.64,0L288.645,363.01a2.542,2.542,0,0,0-3.594-3.6L282.9,357.26l.877-.877,2.548-2.547C286.49,354.052,298.769,369.7,306.968,373.692Z" transform="translate(-232.817 -305.876)" fill="#d33333"/>
  </g>
</svg>
