<?xml version="1.0" encoding="utf-8"?>
<!-- Generator: Adobe Illustrator 24.1.2, SVG Export Plug-In . SVG Version: 6.00 Build 0)  -->
<svg version="1.1" id="Komponente_12_1" xmlns="http://www.w3.org/2000/svg" xmlns:xlink="http://www.w3.org/1999/xlink" x="0px"
	 y="0px" viewBox="0 0 73.6 70.5" style="enable-background:new 0 0 73.6 70.5;" xml:space="preserve">
<style type="text/css">
	.st0{fill-rule:evenodd;clip-rule:evenodd;fill:#7BACDF;}
	.st1{fill-rule:evenodd;clip-rule:evenodd;fill:#C5E3FF;}
	.st2{fill-rule:evenodd;clip-rule:evenodd;fill:#97D729;}
	.st3{fill-rule:evenodd;clip-rule:evenodd;fill:#3987D0;}
	.st4{fill-rule:evenodd;clip-rule:evenodd;fill:#8AC9FE;}
	.st5{fill:#F3EAE6;}
	.st6{fill-rule:evenodd;clip-rule:evenodd;fill:#81B821;}
	.st7{fill-rule:evenodd;clip-rule:evenodd;fill:#BBEC6A;}
	.st8{fill:#E2D9FB;}
	.st9{fill:#FD5D99;}
	.st10{fill:#E2407A;}
	.st11{fill:#B51359;}
	.st12{fill:#F2F2FC;}
</style>
<g id="Gruppe_42" transform="translate(-30 -333.117)">
	<g id="sewing_1_" transform="translate(30 346.219)">
		<g id="Gruppe_21" transform="translate(3.412 3.408)">
			<path id="Pfad_62" class="st0" d="M34.1,17c0-6.4-6.8-16.9-17.1-17S0,8.3,0,17c0.1,4.8,2.1,9.4,5.7,12.7
				c3.2,2.7,7.2,4.2,11.4,4.4c5.2,0,4.3,0.9,5.7,0.5c1.8-2.3,4.4-5.2,7.4-5.9C32.6,25.8,34.1,23.4,34.1,17z M19.7,19.7
				c1.1-1.1,2.9-1.1,4,0c1.1,1.1,1.1,2.9,0,4s-2.9,1.1-4,0c0,0,0,0,0,0C18.6,22.6,18.6,20.8,19.7,19.7z M14.4,19.7
				c1.1,1.1,1.1,2.9,0,4c-1.1,1.1-2.9,1.1-4,0s-1.1-2.9,0-4c0,0,0,0,0,0C11.5,18.6,13.3,18.6,14.4,19.7L14.4,19.7z M14.4,14.4
				c-1.1,1.1-2.9,1.1-4,0c-1.1-1.1-1.1-2.9,0-4s2.9-1.1,4,0c0,0,0,0,0,0C15.5,11.5,15.5,13.3,14.4,14.4L14.4,14.4z M23.7,14.4
				c-1.1,1.1-2.9,1.1-4,0c-1.1-1.1-1.1-2.9,0-4c1.1-1.1,2.9-1.1,4,0c0,0,0,0,0,0C24.8,11.5,24.8,13.3,23.7,14.4L23.7,14.4z"/>
		</g>
		<g id="Gruppe_22">
			<path id="Pfad_63" class="st1" d="M40.9,20.5C40.9,9.2,31.8,0,20.5,0S0,9.1,0,20.4c0,11.3,9.2,20.5,20.5,20.5c0,0,0,0,0,0
				c0.7,0,1.4,0,2.1-0.1c4.4-1.3,3.8-3.2,2.5-5.1C16.6,38.2,7.8,33.4,5.3,25S7.5,7.8,15.9,5.2s17.3,2.2,19.8,10.6
				c1.6,5.2,0.4,10.9-3.2,15c2,4,5.4,1.2,5.7-0.2C40,27.6,40.9,24.1,40.9,20.5z"/>
		</g>
		<g id="Gruppe_23" transform="translate(25.413 33.726)">
			<path id="Pfad_64" class="st2" d="M20.5,10.2C20.5,4.6,15.9,0,10.2,0S0,4.6,0,10.2s4.6,10.2,10.2,10.3c0,0,0,0,0,0
				C15.9,20.5,20.5,15.9,20.5,10.2L20.5,10.2z M5.2,8.8c-0.8,0.8-0.8,2.1,0,2.9c0.8,0.8,2.1,0.8,2.9,0c0.8-0.8,0.8-2.1,0-2.9l0,0
				C7.3,8,6,8,5.2,8.8L5.2,8.8z M12.4,8.9c-0.8,0.8-0.8,2.1,0,2.9s2.1,0.8,2.9,0c0.8-0.8,0.8-2.1,0-2.9c0,0,0,0,0,0
				C14.5,8.1,13.2,8.1,12.4,8.9L12.4,8.9z"/>
		</g>
		<g id="Gruppe_24" transform="translate(26.524 5.763)">
			<path id="Pfad_65" class="st3" d="M0,0c3.7,4.2,5.6,9.6,5.6,15.2c0,3.8-0.9,7.6-2.7,11c1-0.5,2-0.9,3-1.1
				C11.7,18.5,11,8.5,4.4,2.7C3.1,1.6,1.6,0.7,0,0L0,0z"/>
		</g>
		<g id="Gruppe_25" transform="translate(17.025)">
			<path id="Pfad_66" class="st4" d="M23.9,20.5C23.9,9.2,14.7,0,3.4,0C2.3,0,1.1,0.1,0,0.3C3.7,1,7,2.9,9.5,5.8
				c8.1,3.3,12,12.6,8.6,20.7c-0.7,1.6-1.6,3.1-2.7,4.4c1.9-0.5,3.8-0.5,5.7-0.2C23,27.6,23.9,24.1,23.9,20.5z"/>
		</g>
		<path id="Pfad_67" class="st5" d="M21.7,20.5l3.3-3.3c0.3-0.3,0.3-0.9,0-1.2c-0.3-0.3-0.9-0.3-1.2,0l-3.3,3.3l-3.3-3.3
			c-0.3-0.3-0.9-0.4-1.2,0s-0.4,0.9,0,1.2c0,0,0,0,0,0l3.3,3.3l-3.3,3.3c-0.3,0.3-0.3,0.9,0,1.2c0.3,0.3,0.9,0.3,1.2,0l3.3-3.3
			l3.3,3.3c0.3,0.3,0.9,0.4,1.2,0s0.4-0.9,0-1.2c0,0,0,0,0,0L21.7,20.5z"/>
		<g id="Gruppe_26" transform="translate(40.009 35.745)">
			<path id="Pfad_68" class="st6" d="M0.5,0C3.4,5.2,3.2,11.7,0,16.7c4.7-2.4,6.6-8.2,4.2-12.8C3.3,2.3,2.1,0.9,0.5,0z"/>
		</g>
		<g id="Gruppe_27" transform="translate(22.181 30.496)">
			<path id="Pfad_69" class="st7" d="M27,13.5C27,6,20.9,0,13.5,0C7.2,0,1.8,4.3,0.4,10.3c-0.2,1-0.4,2.1-0.4,3.2
				c0,7.4,6,13.5,13.5,13.5C20.9,26.9,27,20.9,27,13.5L27,13.5z M13.5,3.9c5.3,0,9.5,4.3,9.5,9.6c0,5.3-4.3,9.5-9.6,9.5
				c-5.3,0-9.5-4.3-9.5-9.6C3.9,8.2,8.2,3.9,13.5,3.9L13.5,3.9z"/>
		</g>
		<g id="Gruppe_28" transform="translate(35.617 30.512)">
			<path id="Pfad_70" class="st2" d="M9.5,3.9C7.2,1.5,4,0.2,0.7,0c1.7,1.5,3.1,3.3,4.2,5.2c4.5,2.7,6.1,8.5,3.4,13.1
				C7.4,19.9,6,21.1,4.4,22c-1.2,1.9-2.7,3.6-4.4,5h0c7.4,0,13.5-6,13.5-13.5C13.5,9.9,12.1,6.4,9.5,3.9L9.5,3.9z"/>
		</g>
	</g>
	<g id="sew_1_" transform="matrix(0.438, -0.899, 0.899, 0.438, 51.561, 375.955)">
		<path id="Pfad_106" class="st8" d="M19.8,46.9l-2.7-2.7c-2.8-2.8-2.8-7.4,0-10.2l0.6-0.6c1.3-1.3,3.2-2.1,5.1-2.1h0.1
			c1.9,0,3.7,0.7,5,2l3.1,3c1.6,1.5,4.1,1.5,5.7,0c1.6-1.6,1.6-4.2,0-5.8c0,0,0,0,0,0L25.4,19.2l2.2-2.3l11.3,11.2
			c2.8,2.8,2.9,7.4,0,10.2c-1.3,1.4-3.2,2.1-5.1,2.1h-0.1c-1.9,0-3.7-0.7-5-2l-3.1-3c-1.6-1.5-4.1-1.5-5.7,0l-0.6,0.6
			c-1.6,1.6-1.6,4.2,0,5.8l2.7,2.7L19.8,46.9z"/>
		<path id="Pfad_107" class="st9" d="M-7.3,47.3c0,0,38.7-48.4,41.5-51.2c1.5-1.5,3.4-2.5,5.5-2.9c2-0.4,4,0.2,5.4,1.6
			c1.4,1.5,2,3.5,1.6,5.4c-0.4,2.1-1.4,4-2.9,5.5C41.1,8.6-7.3,47.3-7.3,47.3z"/>
		<path id="Pfad_108" class="st10" d="M-7.3,47.3L-7.3,47.3c0,0,48.4-38.7,51.2-41.5c1.5-1.5,2.5-3.4,2.9-5.5c0.4-2-0.2-4-1.6-5.4
			L-7.3,47.3z"/>
		<path id="Pfad_109" class="st10" d="M37.4,4.2c-0.4,0-0.8-0.2-1.1-0.5c-0.7-0.7-0.7-1.8,0-2.5c0.3-0.4,0.6-0.7,0.9-1
			c0.3-0.3,0.6-0.6,1-0.9c0.7-0.7,1.8-0.7,2.5,0c0.7,0.7,0.7,1.8,0,2.5c-0.3,0.4-0.6,0.7-0.9,1c-0.3,0.3-0.6,0.6-1,0.9
			C38.4,4,37.9,4.1,37.4,4.2z"/>
		<path id="Pfad_110" class="st11" d="M36.3,3.7C36.6,4,37,4.2,37.4,4.2c0.5,0,1-0.2,1.4-0.5c0.4-0.3,0.7-0.6,1-0.9
			c0.3-0.3,0.6-0.6,0.9-1c0.7-0.7,0.7-1.8,0.1-2.5L36.3,3.7z"/>
		<path id="Pfad_111" class="st12" d="M37.3-1.9c-3.6-3.6-9.3-3.6-12.9,0L20,2.5c-3.2,3.2-3.6,8.3-0.9,11.9l2.1-2.6
			c-1.3-2.3-0.9-5.2,1-7.1l4.4-4.4c1.1-1.1,2.6-1.7,4.2-1.7c0.4,0,0.7,0,1.1,0.1c1.2,0.2,2.3,0.8,3.1,1.6l2.1,2.1l2.2-2.2L37.3-1.9z
			"/>
	</g>
</g>
</svg>
