<svg id="Komponente_11_1" data-name="Komponente 11 – 1" xmlns="http://www.w3.org/2000/svg" width="72.955" height="71.637" viewBox="0 0 72.955 71.637">
  <g id="plant">
    <path id="Pfad_26" data-name="Pfad 26" d="M308.848,153.126a9.487,9.487,0,1,1-1.957-18.868c7.329-.708,15.722,4,18.977,6.052a1.4,1.4,0,0,1,.274,2.152C323.449,145.313,316.276,152.183,308.848,153.126Z" transform="translate(-258.303 -115.883)" fill="#afd755"/>
    <path id="Pfad_27" data-name="Pfad 27" d="M328.654,188.769a1.389,1.389,0,0,0,.377-.892c-16.985-.752-27.956,4.814-27.956,4.814a9.479,9.479,0,0,0,10.286,6.742C318.79,198.49,325.963,191.62,328.654,188.769Z" transform="translate(-260.816 -162.19)" fill="#bee86e"/>
    <path id="Pfad_28" data-name="Pfad 28" d="M33.532,12.047a13.065,13.065,0,0,1-1.688,18.58c-6.033,4.934-15,3.141-19.449-3.256C6.57,19,5.958,5.962,5.931,1.408A1.4,1.4,0,0,1,7.58.02C12.382.833,26.567,3.854,33.532,12.047Z" transform="translate(-5.931 0)" fill="#afd755"/>
    <path id="Pfad_29" data-name="Pfad 29" d="M9.281.021A1.411,1.411,0,0,0,7.9.583c5.344,5.1,18.452,18.269,24.978,30.529.223-.159.451-.308.666-.485a13.064,13.064,0,0,0,1.688-18.58C28.269,3.855,14.083.834,9.281.021Z" transform="translate(-7.632 -0.001)" fill="#bee86e"/>
    <g id="Gruppe_9" data-name="Gruppe 9" transform="translate(10.01 11.033)">
      <path id="Pfad_30" data-name="Pfad 30" d="M81.215,81.215a1.112,1.112,0,0,0-1.577,1.568q.576.578,1.133,1.161a1.112,1.112,0,1,0,1.606-1.538Q81.806,81.808,81.215,81.215Z" transform="translate(-79.314 -80.886)" fill="#96be4b"/>
      <path id="Pfad_31" data-name="Pfad 31" d="M147.53,124.527c-5.6.969-15.616,3.829-22.043,12.137A80.487,80.487,0,0,0,112.1,114.692a1.112,1.112,0,0,0-1.69,1.447c20.476,23.936,18.9,50.955,18.885,51.224a1.112,1.112,0,0,0,1.034,1.185q.038,0,.077,0a1.112,1.112,0,0,0,1.108-1.036c.012-.182.713-12.139-4.666-27.278a2.2,2.2,0,0,1,.287-2.064c5.965-7.83,15.469-10.535,20.772-11.454a1.112,1.112,0,0,0-.38-2.192Z" transform="translate(-105.941 -109.745)" fill="#96be4b"/>
      <path id="Pfad_32" data-name="Pfad 32" d="M412.3,184.5h-.01s-.6.005-1.635.084a1.112,1.112,0,0,0,.083,2.221q.042,0,.085,0c.928-.071,1.471-.077,1.49-.077a1.112,1.112,0,0,0-.012-2.224Z" transform="translate(-364.567 -170.369)" fill="#96be4b"/>
    </g>
  </g>
  <g id="bee" transform="translate(13.394 19.248)">
    <g id="Gruppe_5" data-name="Gruppe 5" transform="translate(0 4.964)">
      <path id="Pfad_8" data-name="Pfad 8" d="M355.527,77.845h0a.9.9,0,0,1-.895-.9c0-.259.062-6.389,3.548-10.628a.9.9,0,0,1,1.389,1.142c-3.073,3.736-3.139,9.436-3.139,9.493A.9.9,0,0,1,355.527,77.845Z" transform="translate(-313.374 -65.988)" fill="#333e40"/>
      <path id="Pfad_9" data-name="Pfad 9" d="M418.84,90.812h0a.9.9,0,0,1-.895-.9c0-.259.063-6.389,3.548-10.628a.9.9,0,0,1,1.389,1.142c-3.072,3.736-3.139,9.436-3.139,9.493A.9.9,0,0,1,418.84,90.812Z" transform="translate(-369.322 -77.447)" fill="#333e40"/>
      <path id="Pfad_10" data-name="Pfad 10" d="M.376,280.53a.463.463,0,0,0,0,.909l7.369,2.313v-5.535Z" transform="translate(0 -253.528)" fill="#333e40"/>
    </g>
    <ellipse id="Ellipse_8" data-name="Ellipse 8" cx="7.542" cy="6.981" rx="7.542" ry="6.981" transform="translate(39.418 4.056) rotate(106.887)" fill="#d9d9d9"/>
    <g id="Gruppe_6" data-name="Gruppe 6" transform="translate(6.988 0.74)">
      <path id="Pfad_11" data-name="Pfad 11" d="M231.341,75.156a.9.9,0,0,1-.884-1.064c.04-.215,1.023-5.3,4.149-8.353a.9.9,0,1,1,1.257,1.285c-2.715,2.655-3.63,7.352-3.639,7.4A.9.9,0,0,1,231.341,75.156Z" transform="translate(-210.622 -61.318)" fill="#f0f0f0"/>
      <ellipse id="Ellipse_9" data-name="Ellipse 9" cx="8.616" cy="7.976" rx="8.616" ry="7.976" transform="translate(5.006 21.123) rotate(-106.887)" fill="#f0f0f0"/>
    </g>
    <path id="Pfad_12" data-name="Pfad 12" d="M134.474,89.75a.9.9,0,0,1-.882-.733c-.011-.058-1.063-5.46-4.193-8.522a.9.9,0,0,1,1.257-1.285c3.542,3.465,4.657,9.231,4.7,9.475a.9.9,0,0,1-.718,1.049A.888.888,0,0,1,134.474,89.75Z" transform="translate(-114.107 -72.482)" fill="#d9d9d9"/>
    <path id="Pfad_13" data-name="Pfad 13" d="M97.262,159.579V148.771L102,139.5l-1.028-3.745a32.118,32.118,0,0,0-9.417,3.289l-4.9,3.429-2.788,8.741v8.3l3.417,7.88,4.268,3.755a32.113,32.113,0,0,0,9.417,3.289l1.725-4.116Z" transform="translate(-74.117 -122.673)" fill="#ffce1c"/>
    <path id="Pfad_14" data-name="Pfad 14" d="M113.132,376.325c-.474-.069-.944-.146-1.409-.233a32.122,32.122,0,0,1-9.417-3.289,24.7,24.7,0,0,1-6.27-4.777l2,4.617,4.268,3.755q.261.142.526.279.8.412,1.633.782a32.488,32.488,0,0,0,4.722,1.655q1.241.331,2.536.574Z" transform="translate(-84.863 -327.926)" fill="#faa330"/>
    <g id="Gruppe_7" data-name="Gruppe 7" transform="translate(6.423 12.462)">
      <path id="Pfad_15" data-name="Pfad 15" d="M61.221,180.08a28.011,28.011,0,0,0,5.008,16.052c-6.686-3.637-11.02-9.472-11.02-16.052s4.334-12.415,11.02-16.051A28.01,28.01,0,0,0,61.221,180.08Z" transform="translate(-55.21 -160.122)" fill="#3b484a"/>
      <path id="Pfad_16" data-name="Pfad 16" d="M202.334,159.641c-2.9,4.416-7.871,7.859-14.133,9.557a34.453,34.453,0,0,1-9.017,1.163,36.551,36.551,0,0,1-6.734-.618,28.159,28.159,0,0,1,0-38.682,36.538,36.538,0,0,1,6.734-.618,30.293,30.293,0,0,1,18.276,5.589,21.459,21.459,0,0,1,3.58,3.387Z" transform="translate(-152.013 -130.443)" fill="#3b484a"/>
    </g>
    <path id="Pfad_17" data-name="Pfad 17" d="M220.576,362.452a34.451,34.451,0,0,1-9.017,1.163,36.558,36.558,0,0,1-6.734-.618,34.2,34.2,0,0,1-3.431-.827,27.794,27.794,0,0,0,3.431,4.422q.4.076.812.142a35.48,35.48,0,0,0,14.938-.687,24.915,24.915,0,0,0,13.264-8.341q.461-.594.87-1.216l-.21-3.284C231.573,357.472,226.691,360.794,220.576,362.452Z" transform="translate(-177.967 -314.83)" fill="#333e40"/>
    <path id="Pfad_18" data-name="Pfad 18" d="M254.464,190.97a16.675,16.675,0,0,1-2.818,9.24c-7,10.6-23.553,9.952-29.383-1.953a16.472,16.472,0,0,1-1.7-7.288,16.8,16.8,0,0,1,3.211-9.815,11.323,11.323,0,0,1,17.1-1.636c.078.077.156.154.233.233.078-.079.156-.156.233-.233l.047-.046a6.137,6.137,0,0,1,8.965.515A17.39,17.39,0,0,1,254.464,190.97Z" transform="translate(-194.904 -158.55)" fill="#ffce1c"/>
    <path id="Pfad_19" data-name="Pfad 19" d="M347.851,288.6q-.021-.65-.094-1.3a16.963,16.963,0,0,1-2.715,7.356c-2.9,4.416-7.871,7.859-14.133,9.557a32.951,32.951,0,0,1-4.656.9A16.891,16.891,0,0,0,347.839,289.9C347.862,289.474,347.865,289.036,347.851,288.6Z" transform="translate(-288.3 -256.592)" fill="#faa330"/>
    <path id="Pfad_20" data-name="Pfad 20" d="M55.334,286.554q-.031.254-.053.511c-.005.059-.009.119-.013.178a14.989,14.989,0,0,0,.558,5.3,18.63,18.63,0,0,0,5.876,8.739,25.891,25.891,0,0,0,4.542,3.117,27.853,27.853,0,0,1-2.957-5.46C58.853,295.721,55.921,291.386,55.334,286.554Z" transform="translate(-48.802 -255.932)" fill="#333e40"/>
    <g id="Gruppe_8" data-name="Gruppe 8" transform="translate(36.842 31.164)">
      <path id="Pfad_21" data-name="Pfad 21" d="M317.6,294.542a.9.9,0,0,1-.9-.9V292.11a.9.9,0,1,1,1.8,0v1.534A.9.9,0,0,1,317.6,294.542Z" transform="translate(-316.701 -291.211)" fill="#3b484a"/>
      <path id="Pfad_22" data-name="Pfad 22" d="M463.322,294.542a.9.9,0,0,1-.9-.9V292.11a.9.9,0,1,1,1.8,0v1.534A.9.9,0,0,1,463.322,294.542Z" transform="translate(-445.471 -291.211)" fill="#3b484a"/>
      <path id="Pfad_23" data-name="Pfad 23" d="M374.57,306.2a3.666,3.666,0,0,1-2.769-1.233.9.9,0,1,1,1.353-1.183,1.929,1.929,0,0,0,2.83,0,.9.9,0,0,1,1.354,1.183A3.665,3.665,0,0,1,374.57,306.2Z" transform="translate(-365.195 -302.052)" fill="#3b484a"/>
    </g>
    <ellipse id="Ellipse_10" data-name="Ellipse 10" cx="2.117" cy="2.117" rx="2.117" ry="2.117" transform="translate(43.38 3.746)" fill="#ffce1c"/>
    <path id="Pfad_24" data-name="Pfad 24" d="M377.046,68.541a2.115,2.115,0,0,1-4.057-.006,2.119,2.119,0,1,0,4.057.006Z" transform="translate(-329.521 -63.275)" fill="#faa330"/>
    <ellipse id="Ellipse_11" data-name="Ellipse 11" cx="2.117" cy="2.117" rx="2.117" ry="2.117" transform="translate(50.745 5.254)" fill="#ffce1c"/>
    <path id="Pfad_25" data-name="Pfad 25" d="M440.359,81.509A2.115,2.115,0,0,1,436.3,81.5a2.119,2.119,0,1,0,4.057.006Z" transform="translate(-385.469 -74.734)" fill="#faa330"/>
  </g>
</svg>
